<?xml version="1.0" encoding="UTF-8" standalone="no"?>
<!DOCTYPE svg PUBLIC "-//W3C//DTD SVG 1.1//EN"
 "http://www.w3.org/Graphics/SVG/1.1/DTD/svg11.dtd">
<!-- Generated by graphviz version 2.38.0 (20140413.2041)
 -->
<!-- Title: %3 Pages: 1 -->
<svg width="384pt" height="291pt"
 viewBox="0.00 0.00 384.25 290.88" xmlns="http://www.w3.org/2000/svg" xmlns:xlink="http://www.w3.org/1999/xlink">
<g id="graph0" class="graph" transform="scale(1 1) rotate(0) translate(4 286.882)">
<title>%3</title>
<polygon fill="white" stroke="none" points="-4,4 -4,-286.882 380.249,-286.882 380.249,4 -4,4"/>
<!-- In0 -->
<g id="node1" class="node"><title>In0</title>
<polygon fill="lightgray" stroke="black" points="268.386,-270.522 240.392,-270.522 240.392,-253.522 268.386,-253.522 268.386,-270.522"/>
<text text-anchor="middle" x="254.389" y="-259.322" font-family="Times,serif" font-size="9.00">In0</text>
</g>
<!-- act1 -->
<g id="node3" class="node"><title>act1</title>
<ellipse fill="lightblue" stroke="black" cx="202.389" cy="-99.6324" rx="21.8265" ry="21.8265"/>
<text text-anchor="middle" x="202.389" y="-96.9324" font-family="Times,serif" font-size="9.00">act1</text>
</g>
<!-- In0&#45;&gt;act1 -->
<g id="edge1" class="edge"><title>In0&#45;&gt;act1</title>
<path fill="none" stroke="green" stroke-width="0.365264" stroke-dasharray="1,5" d="M248.763,-253.509C241.313,-243.175 228.311,-223.739 221.389,-205.163 212.518,-181.357 207.693,-152.91 205.128,-131.707"/>
<polygon fill="green" stroke="green" stroke-width="0.365264" points="208.592,-131.191 204.012,-121.637 201.635,-131.962 208.592,-131.191"/>
</g>
<!-- act2 -->
<g id="node4" class="node"><title>act2</title>
<ellipse fill="lightblue" stroke="black" cx="287.389" cy="-99.6324" rx="21.8265" ry="21.8265"/>
<text text-anchor="middle" x="287.389" y="-96.9324" font-family="Times,serif" font-size="9.00">act2</text>
</g>
<!-- In0&#45;&gt;act2 -->
<g id="edge2" class="edge"><title>In0&#45;&gt;act2</title>
<path fill="none" stroke="green" stroke-width="0.446654" d="M260.787,-253.319C268.833,-243.08 282.222,-224.068 287.389,-205.163 293.979,-181.052 293.478,-152.628 291.608,-131.511"/>
<polygon fill="green" stroke="green" stroke-width="0.446654" points="295.082,-131.076 290.571,-121.49 288.119,-131.797 295.082,-131.076"/>
</g>
<!-- act3 -->
<g id="node5" class="node"><title>act3</title>
<ellipse fill="lightblue" stroke="black" cx="134.389" cy="-181.354" rx="21.8265" ry="21.8265"/>
<text text-anchor="middle" x="134.389" y="-178.654" font-family="Times,serif" font-size="9.00">act3</text>
</g>
<!-- In0&#45;&gt;act3 -->
<g id="edge3" class="edge"><title>In0&#45;&gt;act3</title>
<path fill="none" stroke="red" stroke-width="0.126978" d="M242.883,-253.479C224.202,-241.232 186.787,-216.705 161.17,-199.911"/>
<polygon fill="red" stroke="red" stroke-width="0.126978" points="162.933,-196.882 152.651,-194.326 159.095,-202.736 162.933,-196.882"/>
</g>
<!-- 391 -->
<g id="node8" class="node"><title>391</title>
<ellipse fill="white" stroke="black" cx="355.389" cy="-181.354" rx="20.7202" ry="20.7202"/>
<text text-anchor="middle" x="355.389" y="-178.654" font-family="Times,serif" font-size="9.00">391</text>
</g>
<!-- In0&#45;&gt;391 -->
<g id="edge11" class="edge"><title>In0&#45;&gt;391</title>
<path fill="none" stroke="red" stroke-width="0.556554" d="M264.073,-253.479C279.416,-241.529 309.773,-217.884 331.266,-201.143"/>
<polygon fill="red" stroke="red" stroke-width="0.556554" points="333.563,-203.791 339.301,-194.884 329.261,-198.268 333.563,-203.791"/>
</g>
<!-- 1144 -->
<g id="node10" class="node"><title>1144</title>
<ellipse fill="white" stroke="black" cx="254.389" cy="-181.354" rx="23.6187" ry="23.6187"/>
<text text-anchor="middle" x="254.389" y="-178.654" font-family="Times,serif" font-size="9.00">1144</text>
</g>
<!-- In0&#45;&gt;1144 -->
<g id="edge18" class="edge"><title>In0&#45;&gt;1144</title>
<path fill="none" stroke="green" stroke-width="0.23107" d="M254.389,-253.479C254.389,-244.715 254.389,-229.66 254.389,-215.652"/>
<polygon fill="green" stroke="green" stroke-width="0.23107" points="257.889,-215.265 254.389,-205.265 250.889,-215.265 257.889,-215.265"/>
</g>
<!-- In1 -->
<g id="node2" class="node"><title>In1</title>
<polygon fill="lightgray" stroke="black" points="36.386,-270.522 8.39182,-270.522 8.39182,-253.522 36.386,-253.522 36.386,-270.522"/>
<text text-anchor="middle" x="22.3889" y="-259.322" font-family="Times,serif" font-size="9.00">In1</text>
</g>
<!-- In1&#45;&gt;act1 -->
<g id="edge4" class="edge"><title>In1&#45;&gt;act1</title>
<path fill="none" stroke="red" stroke-width="0.168805" d="M18.2347,-253.336C8.84029,-234.793 -11.5744,-186.964 10.3889,-157.545 29.621,-131.785 121.261,-113.543 170.659,-105.4"/>
<polygon fill="red" stroke="red" stroke-width="0.168805" points="171.487,-108.812 180.806,-103.771 170.377,-101.9 171.487,-108.812"/>
</g>
<!-- In1&#45;&gt;act2 -->
<g id="edge5" class="edge"><title>In1&#45;&gt;act2</title>
<path fill="none" stroke="red" stroke-width="0.316491" d="M21.3481,-253.456C19.1838,-234.333 16.4365,-183.731 43.3889,-157.545 110.679,-92.1692 163.22,-153.612 251.389,-121.545 254.514,-120.409 257.678,-119.006 260.766,-117.468"/>
<polygon fill="red" stroke="red" stroke-width="0.316491" points="262.597,-120.456 269.69,-112.586 259.237,-114.315 262.597,-120.456"/>
</g>
<!-- In1&#45;&gt;act3 -->
<g id="edge6" class="edge"><title>In1&#45;&gt;act3</title>
<path fill="none" stroke="green" stroke-width="0.390433" d="M30.6468,-253.337C34.9155,-249.51 40.288,-244.912 45.3889,-241.163 69.8347,-223.193 78.2616,-222.166 103.389,-205.163 105.232,-203.915 107.121,-202.606 109.012,-201.273"/>
<polygon fill="green" stroke="green" stroke-width="0.390433" points="111.115,-204.071 117.182,-195.386 107.023,-198.392 111.115,-204.071"/>
</g>
<!-- act1&#45;&gt;act1 -->
<g id="edge7" class="edge"><title>act1&#45;&gt;act1</title>
<path fill="none" stroke="red" stroke-width="0.141544" d="M220.035,-113.1C231.382,-116.614 242.302,-112.125 242.302,-99.6324 242.302,-91.044 237.14,-86.2382 230.227,-85.215"/>
<polygon fill="red" stroke="red" stroke-width="0.141544" points="229.667,-81.7519 220.035,-86.1642 230.316,-88.7217 229.667,-81.7519"/>
</g>
<!-- 829 -->
<g id="node11" class="node"><title>829</title>
<ellipse fill="white" stroke="black" cx="202.389" cy="-20.8597" rx="20.7202" ry="20.7202"/>
<text text-anchor="middle" x="202.389" y="-18.1597" font-family="Times,serif" font-size="9.00">829</text>
</g>
<!-- act1&#45;&gt;829 -->
<g id="edge16" class="edge"><title>act1&#45;&gt;829</title>
<path fill="none" stroke="green" stroke-width="0.186345" d="M196.366,-78.4612C195.65,-70.159 195.463,-60.3769 195.804,-51.3012"/>
<polygon fill="green" stroke="green" stroke-width="0.186345" points="199.311,-51.3033 196.448,-41.1026 192.325,-50.8622 199.311,-51.3033"/>
</g>
<!-- act2&#45;&gt;act2 -->
<g id="edge8" class="edge"><title>act2&#45;&gt;act2</title>
<path fill="none" stroke="red" stroke-width="0.137474" stroke-dasharray="1,5" d="M305.035,-113.1C316.382,-116.614 327.302,-112.125 327.302,-99.6324 327.302,-91.044 322.14,-86.2382 315.227,-85.215"/>
<polygon fill="red" stroke="red" stroke-width="0.137474" points="314.667,-81.7519 305.035,-86.1642 315.316,-88.7217 314.667,-81.7519"/>
</g>
<!-- act3&#45;&gt;act3 -->
<g id="edge9" class="edge"><title>act3&#45;&gt;act3</title>
<path fill="none" stroke="red" stroke-width="0.130326" d="M151.62,-195.032C163.114,-198.882 174.302,-194.323 174.302,-181.354 174.302,-172.438 169.014,-167.497 161.974,-166.53"/>
<polygon fill="red" stroke="red" stroke-width="0.130326" points="161.174,-163.097 151.62,-167.676 161.944,-170.055 161.174,-163.097"/>
</g>
<!-- 162 -->
<g id="node6" class="node"><title>162</title>
<ellipse fill="white" stroke="black" cx="135.389" cy="-262.022" rx="20.7202" ry="20.7202"/>
<text text-anchor="middle" x="135.389" y="-259.322" font-family="Times,serif" font-size="9.00">162</text>
</g>
<!-- 162&#45;&gt;act3 -->
<g id="edge10" class="edge"><title>162&#45;&gt;act3</title>
<path fill="none" stroke="green" stroke-width="0.322082" d="M135.131,-240.763C135.025,-232.428 134.9,-222.585 134.783,-213.378"/>
<polygon fill="green" stroke="green" stroke-width="0.322082" points="138.283,-213.322 134.656,-203.368 131.284,-213.412 138.283,-213.322"/>
</g>
<!-- 576 -->
<g id="node7" class="node"><title>576</title>
<ellipse fill="white" stroke="black" cx="73.3889" cy="-181.354" rx="20.7202" ry="20.7202"/>
<text text-anchor="middle" x="73.3889" y="-178.654" font-family="Times,serif" font-size="9.00">576</text>
</g>
<!-- 576&#45;&gt;act1 -->
<g id="edge13" class="edge"><title>576&#45;&gt;act1</title>
<path fill="none" stroke="red" stroke-width="0.541472" d="M89.3045,-167.654C93.7767,-164.252 98.7006,-160.657 103.389,-157.545 126.633,-142.12 154.235,-126.457 174.382,-115.478"/>
<polygon fill="red" stroke="red" stroke-width="0.541472" points="176.212,-118.467 183.346,-110.634 172.884,-112.309 176.212,-118.467"/>
</g>
<!-- 391&#45;&gt;act2 -->
<g id="edge12" class="edge"><title>391&#45;&gt;act2</title>
<path fill="none" stroke="green" stroke-width="0.141473" d="M342.278,-164.983C332.498,-153.517 318.953,-137.638 307.766,-124.522"/>
<polygon fill="green" stroke="green" stroke-width="0.141473" points="310.312,-122.114 301.16,-116.777 304.987,-126.657 310.312,-122.114"/>
</g>
<!-- 391&#45;&gt;829 -->
<g id="edge20" class="edge"><title>391&#45;&gt;829</title>
<path fill="none" stroke="green" stroke-width="0.226199" d="M356.991,-160.301C357.696,-137.765 355.405,-101.261 336.389,-77.7193 310.888,-46.149 264.455,-32.194 233.51,-26.1846"/>
<polygon fill="green" stroke="green" stroke-width="0.226199" points="233.726,-22.6687 223.269,-24.3745 232.507,-29.5618 233.726,-22.6687"/>
</g>
<!-- 662 -->
<g id="node9" class="node"><title>662</title>
<ellipse fill="white" stroke="black" cx="75.3889" cy="-262.022" rx="20.7202" ry="20.7202"/>
<text text-anchor="middle" x="75.3889" y="-259.322" font-family="Times,serif" font-size="9.00">662</text>
</g>
<!-- 662&#45;&gt;act3 -->
<g id="edge14" class="edge"><title>662&#45;&gt;act3</title>
<path fill="none" stroke="green" stroke-width="0.300517" d="M87.6137,-244.722C95.6764,-233.972 106.397,-219.677 115.541,-207.485"/>
<polygon fill="green" stroke="green" stroke-width="0.300517" points="118.368,-209.55 121.567,-199.45 112.767,-205.35 118.368,-209.55"/>
</g>
<!-- 662&#45;&gt;576 -->
<g id="edge15" class="edge"><title>662&#45;&gt;576</title>
<path fill="none" stroke="red" stroke-width="0.141013" d="M74.8738,-240.763C74.6552,-232.163 74.3958,-221.958 74.1554,-212.503"/>
<polygon fill="red" stroke="red" stroke-width="0.141013" points="77.6484,-212.18 73.8953,-202.272 70.6507,-212.358 77.6484,-212.18"/>
</g>
<!-- 1144&#45;&gt;act1 -->
<g id="edge19" class="edge"><title>1144&#45;&gt;act1</title>
<path fill="none" stroke="green" stroke-width="0.422247" d="M241.801,-161.056C235.113,-150.802 226.794,-138.048 219.525,-126.904"/>
<polygon fill="green" stroke="green" stroke-width="0.422247" points="222.367,-124.854 213.972,-118.39 216.504,-128.678 222.367,-124.854"/>
</g>
<!-- 829&#45;&gt;act1 -->
<g id="edge17" class="edge"><title>829&#45;&gt;act1</title>
<path fill="none" stroke="green" stroke-width="0.173158" d="M208.329,-41.1026C209.093,-49.3797 209.316,-59.2529 208.999,-68.4637"/>
<polygon fill="green" stroke="green" stroke-width="0.173158" points="205.505,-68.2731 208.412,-78.4612 212.493,-68.6837 205.505,-68.2731"/>
</g>
</g>
</svg>
