<?xml version="1.0" encoding="utf-8" standalone="no"?>
<!DOCTYPE svg PUBLIC "-//W3C//DTD SVG 1.1//EN"
  "http://www.w3.org/Graphics/SVG/1.1/DTD/svg11.dtd">
<!-- Created with matplotlib (http://matplotlib.org/) -->
<svg height="345pt" version="1.1" viewBox="0 0 460 345" width="460pt" xmlns="http://www.w3.org/2000/svg" xmlns:xlink="http://www.w3.org/1999/xlink">
 <defs>
  <style type="text/css">
*{stroke-linecap:butt;stroke-linejoin:round;}
  </style>
 </defs>
 <g id="figure_1">
  <g id="patch_1">
   <path d="M 0 345.6 
L 460.8 345.6 
L 460.8 0 
L 0 0 
z
" style="fill:#ffffff;"/>
  </g>
  <g id="axes_1">
   <g id="patch_2">
    <path d="M 57.6 307.584 
L 414.72 307.584 
L 414.72 41.472 
L 57.6 41.472 
z
" style="fill:#ffffff;"/>
   </g>
   <g id="PolyCollection_1">
    <path clip-path="url(#pc79b08bf4a)" d="M 73.832727 298.532571 
L 73.832727 307.584 
L 85.027712 307.584 
L 96.222696 307.584 
L 107.41768 307.584 
L 118.612665 307.584 
L 129.807649 307.584 
L 141.002633 307.584 
L 152.197618 307.584 
L 163.392602 307.584 
L 174.587586 307.584 
L 185.782571 307.584 
L 196.977555 307.584 
L 208.172539 307.584 
L 219.367524 307.584 
L 230.562508 307.584 
L 241.757492 307.584 
L 252.952476 307.584 
L 264.147461 307.584 
L 275.342445 307.584 
L 286.537429 307.584 
L 297.732414 307.584 
L 308.927398 307.584 
L 320.122382 307.584 
L 331.317367 307.584 
L 342.512351 307.584 
L 353.707335 307.584 
L 364.90232 307.584 
L 376.097304 307.584 
L 387.292288 307.584 
L 398.487273 307.584 
L 398.487273 307.584 
L 398.487273 307.584 
L 387.292288 307.584 
L 376.097304 307.584 
L 364.90232 307.584 
L 353.707335 307.584 
L 342.512351 307.584 
L 331.317367 307.584 
L 320.122382 307.584 
L 308.927398 307.584 
L 297.732414 307.584 
L 286.537429 307.584 
L 275.342445 307.584 
L 264.147461 307.584 
L 252.952476 307.584 
L 241.757492 307.584 
L 230.562508 307.584 
L 219.367524 296.886857 
L 208.172539 297.709714 
L 196.977555 296.886857 
L 185.782571 298.532571 
L 174.587586 299.355429 
L 163.392602 298.532571 
L 152.197618 297.709714 
L 141.002633 298.532571 
L 129.807649 299.355429 
L 118.612665 298.532571 
L 107.41768 299.355429 
L 96.222696 298.532571 
L 85.027712 297.709714 
L 73.832727 298.532571 
z
" style="fill:#1f77b4;"/>
   </g>
   <g id="PolyCollection_2">
    <path clip-path="url(#pc79b08bf4a)" d="M 73.832727 286.189714 
L 73.832727 298.532571 
L 85.027712 297.709714 
L 96.222696 298.532571 
L 107.41768 299.355429 
L 118.612665 298.532571 
L 129.807649 299.355429 
L 141.002633 298.532571 
L 152.197618 297.709714 
L 163.392602 298.532571 
L 174.587586 299.355429 
L 185.782571 298.532571 
L 196.977555 296.886857 
L 208.172539 297.709714 
L 219.367524 296.886857 
L 230.562508 307.584 
L 241.757492 307.584 
L 252.952476 307.584 
L 264.147461 307.584 
L 275.342445 307.584 
L 286.537429 307.584 
L 297.732414 307.584 
L 308.927398 307.584 
L 320.122382 307.584 
L 331.317367 307.584 
L 342.512351 307.584 
L 353.707335 307.584 
L 364.90232 307.584 
L 376.097304 307.584 
L 387.292288 307.584 
L 398.487273 307.584 
L 398.487273 307.584 
L 398.487273 307.584 
L 387.292288 307.584 
L 376.097304 307.584 
L 364.90232 307.584 
L 353.707335 307.584 
L 342.512351 307.584 
L 331.317367 307.584 
L 320.122382 307.584 
L 308.927398 307.584 
L 297.732414 307.584 
L 286.537429 307.584 
L 275.342445 307.584 
L 264.147461 307.584 
L 252.952476 294.418286 
L 241.757492 293.595429 
L 230.562508 294.418286 
L 219.367524 285.366857 
L 208.172539 285.366857 
L 196.977555 285.366857 
L 185.782571 287.012571 
L 174.587586 290.304 
L 163.392602 288.658286 
L 152.197618 287.012571 
L 141.002633 288.658286 
L 129.807649 288.658286 
L 118.612665 288.658286 
L 107.41768 288.658286 
L 96.222696 288.658286 
L 85.027712 287.012571 
L 73.832727 286.189714 
z
" style="fill:#ff7f0e;"/>
   </g>
   <g id="PolyCollection_3">
    <path clip-path="url(#pc79b08bf4a)" d="M 73.832727 277.961143 
L 73.832727 286.189714 
L 85.027712 287.012571 
L 96.222696 288.658286 
L 107.41768 288.658286 
L 118.612665 288.658286 
L 129.807649 288.658286 
L 141.002633 288.658286 
L 152.197618 287.012571 
L 163.392602 288.658286 
L 174.587586 290.304 
L 185.782571 287.012571 
L 196.977555 285.366857 
L 208.172539 285.366857 
L 219.367524 285.366857 
L 230.562508 294.418286 
L 241.757492 293.595429 
L 252.952476 294.418286 
L 264.147461 307.584 
L 275.342445 307.584 
L 286.537429 307.584 
L 297.732414 307.584 
L 308.927398 307.584 
L 320.122382 307.584 
L 331.317367 307.584 
L 342.512351 307.584 
L 353.707335 307.584 
L 364.90232 307.584 
L 376.097304 307.584 
L 387.292288 307.584 
L 398.487273 307.584 
L 398.487273 307.584 
L 398.487273 307.584 
L 387.292288 307.584 
L 376.097304 307.584 
L 364.90232 307.584 
L 353.707335 307.584 
L 342.512351 307.584 
L 331.317367 307.584 
L 320.122382 307.584 
L 308.927398 307.584 
L 297.732414 307.584 
L 286.537429 297.709714 
L 275.342445 296.886857 
L 264.147461 296.064 
L 252.952476 283.721143 
L 241.757492 284.544 
L 230.562508 284.544 
L 219.367524 274.669714 
L 208.172539 273.846857 
L 196.977555 274.669714 
L 185.782571 275.492571 
L 174.587586 280.429714 
L 163.392602 279.606857 
L 152.197618 279.606857 
L 141.002633 280.429714 
L 129.807649 279.606857 
L 118.612665 280.429714 
L 107.41768 279.606857 
L 96.222696 280.429714 
L 85.027712 279.606857 
L 73.832727 277.961143 
z
" style="fill:#2ca02c;"/>
   </g>
   <g id="PolyCollection_4">
    <path clip-path="url(#pc79b08bf4a)" d="M 73.832727 277.961143 
L 73.832727 277.961143 
L 85.027712 279.606857 
L 96.222696 280.429714 
L 107.41768 279.606857 
L 118.612665 280.429714 
L 129.807649 279.606857 
L 141.002633 280.429714 
L 152.197618 279.606857 
L 163.392602 279.606857 
L 174.587586 280.429714 
L 185.782571 275.492571 
L 196.977555 274.669714 
L 208.172539 273.846857 
L 219.367524 274.669714 
L 230.562508 284.544 
L 241.757492 284.544 
L 252.952476 283.721143 
L 264.147461 296.064 
L 275.342445 296.886857 
L 286.537429 297.709714 
L 297.732414 307.584 
L 308.927398 307.584 
L 320.122382 307.584 
L 331.317367 307.584 
L 342.512351 307.584 
L 353.707335 307.584 
L 364.90232 307.584 
L 376.097304 307.584 
L 387.292288 307.584 
L 398.487273 307.584 
L 398.487273 307.584 
L 398.487273 307.584 
L 387.292288 307.584 
L 376.097304 307.584 
L 364.90232 307.584 
L 353.707335 307.584 
L 342.512351 307.584 
L 331.317367 307.584 
L 320.122382 307.584 
L 308.927398 307.584 
L 297.732414 307.584 
L 286.537429 297.709714 
L 275.342445 296.886857 
L 264.147461 296.064 
L 252.952476 283.721143 
L 241.757492 284.544 
L 230.562508 284.544 
L 219.367524 274.669714 
L 208.172539 273.846857 
L 196.977555 274.669714 
L 185.782571 275.492571 
L 174.587586 280.429714 
L 163.392602 279.606857 
L 152.197618 279.606857 
L 141.002633 280.429714 
L 129.807649 279.606857 
L 118.612665 280.429714 
L 107.41768 279.606857 
L 96.222696 280.429714 
L 85.027712 279.606857 
L 73.832727 277.961143 
z
" style="fill:#d62728;"/>
   </g>
   <g id="PolyCollection_5">
    <path clip-path="url(#pc79b08bf4a)" d="M 73.832727 268.909714 
L 73.832727 277.961143 
L 85.027712 279.606857 
L 96.222696 280.429714 
L 107.41768 279.606857 
L 118.612665 280.429714 
L 129.807649 279.606857 
L 141.002633 280.429714 
L 152.197618 279.606857 
L 163.392602 279.606857 
L 174.587586 280.429714 
L 185.782571 275.492571 
L 196.977555 274.669714 
L 208.172539 273.846857 
L 219.367524 274.669714 
L 230.562508 284.544 
L 241.757492 284.544 
L 252.952476 283.721143 
L 264.147461 296.064 
L 275.342445 296.886857 
L 286.537429 297.709714 
L 297.732414 307.584 
L 308.927398 307.584 
L 320.122382 307.584 
L 331.317367 307.584 
L 342.512351 307.584 
L 353.707335 307.584 
L 364.90232 307.584 
L 376.097304 307.584 
L 387.292288 307.584 
L 398.487273 307.584 
L 398.487273 307.584 
L 398.487273 307.584 
L 387.292288 307.584 
L 376.097304 307.584 
L 364.90232 307.584 
L 353.707335 307.584 
L 342.512351 307.584 
L 331.317367 307.584 
L 320.122382 307.584 
L 308.927398 307.584 
L 297.732414 307.584 
L 286.537429 297.709714 
L 275.342445 296.886857 
L 264.147461 296.064 
L 252.952476 272.201143 
L 241.757492 273.846857 
L 230.562508 273.024 
L 219.367524 265.618286 
L 208.172539 263.972571 
L 196.977555 263.972571 
L 185.782571 266.441143 
L 174.587586 272.201143 
L 163.392602 272.201143 
L 152.197618 271.378286 
L 141.002633 273.024 
L 129.807649 271.378286 
L 118.612665 271.378286 
L 107.41768 269.732571 
L 96.222696 271.378286 
L 85.027712 269.732571 
L 73.832727 268.909714 
z
" style="fill:#9467bd;"/>
   </g>
   <g id="PolyCollection_6">
    <path clip-path="url(#pc79b08bf4a)" d="M 73.832727 268.909714 
L 73.832727 268.909714 
L 85.027712 269.732571 
L 96.222696 271.378286 
L 107.41768 269.732571 
L 118.612665 271.378286 
L 129.807649 271.378286 
L 141.002633 273.024 
L 152.197618 271.378286 
L 163.392602 272.201143 
L 174.587586 272.201143 
L 185.782571 266.441143 
L 196.977555 263.972571 
L 208.172539 263.972571 
L 219.367524 265.618286 
L 230.562508 273.024 
L 241.757492 273.846857 
L 252.952476 272.201143 
L 264.147461 296.064 
L 275.342445 296.886857 
L 286.537429 297.709714 
L 297.732414 307.584 
L 308.927398 307.584 
L 320.122382 307.584 
L 331.317367 307.584 
L 342.512351 307.584 
L 353.707335 307.584 
L 364.90232 307.584 
L 376.097304 307.584 
L 387.292288 307.584 
L 398.487273 307.584 
L 398.487273 307.584 
L 398.487273 307.584 
L 387.292288 307.584 
L 376.097304 307.584 
L 364.90232 307.584 
L 353.707335 307.584 
L 342.512351 307.584 
L 331.317367 307.584 
L 320.122382 307.584 
L 308.927398 307.584 
L 297.732414 307.584 
L 286.537429 297.709714 
L 275.342445 296.886857 
L 264.147461 296.064 
L 252.952476 272.201143 
L 241.757492 273.846857 
L 230.562508 273.024 
L 219.367524 265.618286 
L 208.172539 263.972571 
L 196.977555 263.972571 
L 185.782571 266.441143 
L 174.587586 272.201143 
L 163.392602 272.201143 
L 152.197618 271.378286 
L 141.002633 273.024 
L 129.807649 271.378286 
L 118.612665 271.378286 
L 107.41768 269.732571 
L 96.222696 271.378286 
L 85.027712 269.732571 
L 73.832727 268.909714 
z
" style="fill:#8c564b;"/>
   </g>
   <g id="PolyCollection_7">
    <path clip-path="url(#pc79b08bf4a)" d="M 73.832727 260.681143 
L 73.832727 268.909714 
L 85.027712 269.732571 
L 96.222696 271.378286 
L 107.41768 269.732571 
L 118.612665 271.378286 
L 129.807649 271.378286 
L 141.002633 273.024 
L 152.197618 271.378286 
L 163.392602 272.201143 
L 174.587586 272.201143 
L 185.782571 266.441143 
L 196.977555 263.972571 
L 208.172539 263.972571 
L 219.367524 265.618286 
L 230.562508 273.024 
L 241.757492 273.846857 
L 252.952476 272.201143 
L 264.147461 296.064 
L 275.342445 296.886857 
L 286.537429 297.709714 
L 297.732414 307.584 
L 308.927398 307.584 
L 320.122382 307.584 
L 331.317367 307.584 
L 342.512351 307.584 
L 353.707335 307.584 
L 364.90232 307.584 
L 376.097304 307.584 
L 387.292288 307.584 
L 398.487273 307.584 
L 398.487273 307.584 
L 398.487273 307.584 
L 387.292288 307.584 
L 376.097304 307.584 
L 364.90232 307.584 
L 353.707335 307.584 
L 342.512351 307.584 
L 331.317367 307.584 
L 320.122382 307.584 
L 308.927398 307.584 
L 297.732414 307.584 
L 286.537429 297.709714 
L 275.342445 296.886857 
L 264.147461 296.064 
L 252.952476 272.201143 
L 241.757492 273.846857 
L 230.562508 273.024 
L 219.367524 255.744 
L 208.172539 253.275429 
L 196.977555 254.098286 
L 185.782571 259.035429 
L 174.587586 266.441143 
L 163.392602 262.326857 
L 152.197618 262.326857 
L 141.002633 263.149714 
L 129.807649 262.326857 
L 118.612665 261.504 
L 107.41768 259.035429 
L 96.222696 261.504 
L 85.027712 260.681143 
L 73.832727 260.681143 
z
" style="fill:#e377c2;"/>
   </g>
   <g id="PolyCollection_8">
    <path clip-path="url(#pc79b08bf4a)" d="M 73.832727 250.806857 
L 73.832727 260.681143 
L 85.027712 260.681143 
L 96.222696 261.504 
L 107.41768 259.035429 
L 118.612665 261.504 
L 129.807649 262.326857 
L 141.002633 263.149714 
L 152.197618 262.326857 
L 163.392602 262.326857 
L 174.587586 266.441143 
L 185.782571 259.035429 
L 196.977555 254.098286 
L 208.172539 253.275429 
L 219.367524 255.744 
L 230.562508 273.024 
L 241.757492 273.846857 
L 252.952476 272.201143 
L 264.147461 296.064 
L 275.342445 296.886857 
L 286.537429 297.709714 
L 297.732414 307.584 
L 308.927398 307.584 
L 320.122382 307.584 
L 331.317367 307.584 
L 342.512351 307.584 
L 353.707335 307.584 
L 364.90232 307.584 
L 376.097304 307.584 
L 387.292288 307.584 
L 398.487273 307.584 
L 398.487273 292.772571 
L 398.487273 292.772571 
L 387.292288 291.126857 
L 376.097304 289.481143 
L 364.90232 289.481143 
L 353.707335 291.126857 
L 342.512351 292.772571 
L 331.317367 294.418286 
L 320.122382 293.595429 
L 308.927398 295.241143 
L 297.732414 294.418286 
L 286.537429 286.189714 
L 275.342445 287.012571 
L 264.147461 282.075429 
L 252.952476 259.035429 
L 241.757492 261.504 
L 230.562508 261.504 
L 219.367524 245.869714 
L 208.172539 242.578286 
L 196.977555 242.578286 
L 185.782571 249.161143 
L 174.587586 255.744 
L 163.392602 252.452571 
L 152.197618 251.629714 
L 141.002633 251.629714 
L 129.807649 251.629714 
L 118.612665 251.629714 
L 107.41768 249.984 
L 96.222696 253.275429 
L 85.027712 251.629714 
L 73.832727 250.806857 
z
" style="fill:#7f7f7f;"/>
   </g>
   <g id="PolyCollection_9">
    <path clip-path="url(#pc79b08bf4a)" d="M 73.832727 250.806857 
L 73.832727 250.806857 
L 85.027712 251.629714 
L 96.222696 253.275429 
L 107.41768 249.984 
L 118.612665 251.629714 
L 129.807649 251.629714 
L 141.002633 251.629714 
L 152.197618 251.629714 
L 163.392602 252.452571 
L 174.587586 255.744 
L 185.782571 249.161143 
L 196.977555 242.578286 
L 208.172539 242.578286 
L 219.367524 245.869714 
L 230.562508 261.504 
L 241.757492 261.504 
L 252.952476 259.035429 
L 264.147461 282.075429 
L 275.342445 287.012571 
L 286.537429 286.189714 
L 297.732414 294.418286 
L 308.927398 295.241143 
L 320.122382 293.595429 
L 331.317367 294.418286 
L 342.512351 292.772571 
L 353.707335 291.126857 
L 364.90232 289.481143 
L 376.097304 289.481143 
L 387.292288 291.126857 
L 398.487273 292.772571 
L 398.487273 292.772571 
L 398.487273 292.772571 
L 387.292288 291.126857 
L 376.097304 289.481143 
L 364.90232 289.481143 
L 353.707335 291.126857 
L 342.512351 292.772571 
L 331.317367 294.418286 
L 320.122382 293.595429 
L 308.927398 295.241143 
L 297.732414 294.418286 
L 286.537429 286.189714 
L 275.342445 287.012571 
L 264.147461 282.075429 
L 252.952476 259.035429 
L 241.757492 261.504 
L 230.562508 261.504 
L 219.367524 245.869714 
L 208.172539 242.578286 
L 196.977555 242.578286 
L 185.782571 249.161143 
L 174.587586 255.744 
L 163.392602 252.452571 
L 152.197618 251.629714 
L 141.002633 251.629714 
L 129.807649 251.629714 
L 118.612665 251.629714 
L 107.41768 249.984 
L 96.222696 253.275429 
L 85.027712 251.629714 
L 73.832727 250.806857 
z
" style="fill:#bcbd22;"/>
   </g>
   <g id="PolyCollection_10">
    <path clip-path="url(#pc79b08bf4a)" d="M 73.832727 240.109714 
L 73.832727 250.806857 
L 85.027712 251.629714 
L 96.222696 253.275429 
L 107.41768 249.984 
L 118.612665 251.629714 
L 129.807649 251.629714 
L 141.002633 251.629714 
L 152.197618 251.629714 
L 163.392602 252.452571 
L 174.587586 255.744 
L 185.782571 249.161143 
L 196.977555 242.578286 
L 208.172539 242.578286 
L 219.367524 245.869714 
L 230.562508 261.504 
L 241.757492 261.504 
L 252.952476 259.035429 
L 264.147461 282.075429 
L 275.342445 287.012571 
L 286.537429 286.189714 
L 297.732414 294.418286 
L 308.927398 295.241143 
L 320.122382 293.595429 
L 331.317367 294.418286 
L 342.512351 292.772571 
L 353.707335 291.126857 
L 364.90232 289.481143 
L 376.097304 289.481143 
L 387.292288 291.126857 
L 398.487273 292.772571 
L 398.487273 292.772571 
L 398.487273 292.772571 
L 387.292288 291.126857 
L 376.097304 289.481143 
L 364.90232 289.481143 
L 353.707335 291.126857 
L 342.512351 292.772571 
L 331.317367 277.961143 
L 320.122382 277.961143 
L 308.927398 279.606857 
L 297.732414 279.606857 
L 286.537429 271.378286 
L 275.342445 273.024 
L 264.147461 266.441143 
L 252.952476 245.046857 
L 241.757492 248.338286 
L 230.562508 249.161143 
L 219.367524 235.172571 
L 208.172539 231.058286 
L 196.977555 230.235429 
L 185.782571 236.818286 
L 174.587586 245.046857 
L 163.392602 242.578286 
L 152.197618 242.578286 
L 141.002633 241.755429 
L 129.807649 240.932571 
L 118.612665 239.286857 
L 107.41768 238.464 
L 96.222696 242.578286 
L 85.027712 241.755429 
L 73.832727 240.109714 
z
" style="fill:#17becf;"/>
   </g>
   <g id="PolyCollection_11">
    <path clip-path="url(#pc79b08bf4a)" d="M 73.832727 240.109714 
L 73.832727 240.109714 
L 85.027712 241.755429 
L 96.222696 242.578286 
L 107.41768 238.464 
L 118.612665 239.286857 
L 129.807649 240.932571 
L 141.002633 241.755429 
L 152.197618 242.578286 
L 163.392602 242.578286 
L 174.587586 245.046857 
L 185.782571 236.818286 
L 196.977555 230.235429 
L 208.172539 231.058286 
L 219.367524 235.172571 
L 230.562508 249.161143 
L 241.757492 248.338286 
L 252.952476 245.046857 
L 264.147461 266.441143 
L 275.342445 273.024 
L 286.537429 271.378286 
L 297.732414 279.606857 
L 308.927398 279.606857 
L 320.122382 277.961143 
L 331.317367 277.961143 
L 342.512351 292.772571 
L 353.707335 291.126857 
L 364.90232 289.481143 
L 376.097304 289.481143 
L 387.292288 291.126857 
L 398.487273 292.772571 
L 398.487273 292.772571 
L 398.487273 292.772571 
L 387.292288 291.126857 
L 376.097304 289.481143 
L 364.90232 289.481143 
L 353.707335 291.126857 
L 342.512351 292.772571 
L 331.317367 277.961143 
L 320.122382 277.961143 
L 308.927398 279.606857 
L 297.732414 279.606857 
L 286.537429 271.378286 
L 275.342445 273.024 
L 264.147461 266.441143 
L 252.952476 245.046857 
L 241.757492 248.338286 
L 230.562508 249.161143 
L 219.367524 235.172571 
L 208.172539 231.058286 
L 196.977555 230.235429 
L 185.782571 236.818286 
L 174.587586 245.046857 
L 163.392602 242.578286 
L 152.197618 242.578286 
L 141.002633 241.755429 
L 129.807649 240.932571 
L 118.612665 239.286857 
L 107.41768 238.464 
L 96.222696 242.578286 
L 85.027712 241.755429 
L 73.832727 240.109714 
z
" style="fill:#1f77b4;"/>
   </g>
   <g id="PolyCollection_12">
    <path clip-path="url(#pc79b08bf4a)" d="M 73.832727 231.058286 
L 73.832727 240.109714 
L 85.027712 241.755429 
L 96.222696 242.578286 
L 107.41768 238.464 
L 118.612665 239.286857 
L 129.807649 240.932571 
L 141.002633 241.755429 
L 152.197618 242.578286 
L 163.392602 242.578286 
L 174.587586 245.046857 
L 185.782571 236.818286 
L 196.977555 230.235429 
L 208.172539 231.058286 
L 219.367524 235.172571 
L 230.562508 249.161143 
L 241.757492 248.338286 
L 252.952476 245.046857 
L 264.147461 266.441143 
L 275.342445 273.024 
L 286.537429 271.378286 
L 297.732414 279.606857 
L 308.927398 279.606857 
L 320.122382 277.961143 
L 331.317367 277.961143 
L 342.512351 292.772571 
L 353.707335 291.126857 
L 364.90232 289.481143 
L 376.097304 289.481143 
L 387.292288 291.126857 
L 398.487273 292.772571 
L 398.487273 292.772571 
L 398.487273 292.772571 
L 387.292288 291.126857 
L 376.097304 289.481143 
L 364.90232 289.481143 
L 353.707335 291.126857 
L 342.512351 292.772571 
L 331.317367 277.961143 
L 320.122382 277.961143 
L 308.927398 267.264 
L 297.732414 266.441143 
L 286.537429 259.858286 
L 275.342445 260.681143 
L 264.147461 253.275429 
L 252.952476 232.704 
L 241.757492 235.172571 
L 230.562508 235.172571 
L 219.367524 222.829714 
L 208.172539 219.538286 
L 196.977555 219.538286 
L 185.782571 227.766857 
L 174.587586 235.172571 
L 163.392602 233.526857 
L 152.197618 234.349714 
L 141.002633 232.704 
L 129.807649 232.704 
L 118.612665 230.235429 
L 107.41768 228.589714 
L 96.222696 231.881143 
L 85.027712 231.881143 
L 73.832727 231.058286 
z
" style="fill:#ff7f0e;"/>
   </g>
   <g id="PolyCollection_13">
    <path clip-path="url(#pc79b08bf4a)" d="M 73.832727 221.184 
L 73.832727 231.058286 
L 85.027712 231.881143 
L 96.222696 231.881143 
L 107.41768 228.589714 
L 118.612665 230.235429 
L 129.807649 232.704 
L 141.002633 232.704 
L 152.197618 234.349714 
L 163.392602 233.526857 
L 174.587586 235.172571 
L 185.782571 227.766857 
L 196.977555 219.538286 
L 208.172539 219.538286 
L 219.367524 222.829714 
L 230.562508 235.172571 
L 241.757492 235.172571 
L 252.952476 232.704 
L 264.147461 253.275429 
L 275.342445 260.681143 
L 286.537429 259.858286 
L 297.732414 266.441143 
L 308.927398 267.264 
L 320.122382 277.961143 
L 331.317367 277.961143 
L 342.512351 292.772571 
L 353.707335 291.126857 
L 364.90232 289.481143 
L 376.097304 289.481143 
L 387.292288 291.126857 
L 398.487273 292.772571 
L 398.487273 292.772571 
L 398.487273 292.772571 
L 387.292288 291.126857 
L 376.097304 289.481143 
L 364.90232 289.481143 
L 353.707335 291.126857 
L 342.512351 292.772571 
L 331.317367 277.961143 
L 320.122382 277.961143 
L 308.927398 267.264 
L 297.732414 266.441143 
L 286.537429 259.858286 
L 275.342445 260.681143 
L 264.147461 253.275429 
L 252.952476 232.704 
L 241.757492 235.172571 
L 230.562508 235.172571 
L 219.367524 222.829714 
L 208.172539 219.538286 
L 196.977555 219.538286 
L 185.782571 217.892571 
L 174.587586 226.121143 
L 163.392602 225.298286 
L 152.197618 226.944 
L 141.002633 226.944 
L 129.807649 225.298286 
L 118.612665 226.944 
L 107.41768 219.538286 
L 96.222696 222.006857 
L 85.027712 221.184 
L 73.832727 221.184 
z
" style="fill:#2ca02c;"/>
   </g>
   <g id="PolyCollection_14">
    <path clip-path="url(#pc79b08bf4a)" d="M 73.832727 212.955429 
L 73.832727 221.184 
L 85.027712 221.184 
L 96.222696 222.006857 
L 107.41768 219.538286 
L 118.612665 226.944 
L 129.807649 225.298286 
L 141.002633 226.944 
L 152.197618 226.944 
L 163.392602 225.298286 
L 174.587586 226.121143 
L 185.782571 217.892571 
L 196.977555 219.538286 
L 208.172539 219.538286 
L 219.367524 222.829714 
L 230.562508 235.172571 
L 241.757492 235.172571 
L 252.952476 232.704 
L 264.147461 253.275429 
L 275.342445 260.681143 
L 286.537429 259.858286 
L 297.732414 266.441143 
L 308.927398 267.264 
L 320.122382 277.961143 
L 331.317367 277.961143 
L 342.512351 292.772571 
L 353.707335 291.126857 
L 364.90232 289.481143 
L 376.097304 289.481143 
L 387.292288 291.126857 
L 398.487273 292.772571 
L 398.487273 279.606857 
L 398.487273 279.606857 
L 387.292288 276.315429 
L 376.097304 272.201143 
L 364.90232 273.846857 
L 353.707335 277.961143 
L 342.512351 280.429714 
L 331.317367 267.264 
L 320.122382 269.732571 
L 308.927398 262.326857 
L 297.732414 253.275429 
L 286.537429 246.692571 
L 275.342445 246.692571 
L 264.147461 238.464 
L 252.952476 219.538286 
L 241.757492 222.829714 
L 230.562508 223.652571 
L 219.367524 211.309714 
L 208.172539 207.195429 
L 196.977555 208.018286 
L 185.782571 208.018286 
L 174.587586 215.424 
L 163.392602 215.424 
L 152.197618 217.892571 
L 141.002633 217.069714 
L 129.807649 216.246857 
L 118.612665 217.069714 
L 107.41768 210.486857 
L 96.222696 212.132571 
L 85.027712 212.132571 
L 73.832727 212.955429 
z
" style="fill:#d62728;"/>
   </g>
   <g id="PolyCollection_15">
    <path clip-path="url(#pc79b08bf4a)" d="M 73.832727 212.955429 
L 73.832727 212.955429 
L 85.027712 212.132571 
L 96.222696 212.132571 
L 107.41768 210.486857 
L 118.612665 217.069714 
L 129.807649 216.246857 
L 141.002633 217.069714 
L 152.197618 217.892571 
L 163.392602 215.424 
L 174.587586 215.424 
L 185.782571 208.018286 
L 196.977555 208.018286 
L 208.172539 207.195429 
L 219.367524 211.309714 
L 230.562508 223.652571 
L 241.757492 222.829714 
L 252.952476 219.538286 
L 264.147461 238.464 
L 275.342445 246.692571 
L 286.537429 246.692571 
L 297.732414 253.275429 
L 308.927398 262.326857 
L 320.122382 269.732571 
L 331.317367 267.264 
L 342.512351 280.429714 
L 353.707335 277.961143 
L 364.90232 273.846857 
L 376.097304 272.201143 
L 387.292288 276.315429 
L 398.487273 279.606857 
L 398.487273 279.606857 
L 398.487273 279.606857 
L 387.292288 276.315429 
L 376.097304 272.201143 
L 364.90232 273.846857 
L 353.707335 277.961143 
L 342.512351 280.429714 
L 331.317367 267.264 
L 320.122382 269.732571 
L 308.927398 262.326857 
L 297.732414 253.275429 
L 286.537429 246.692571 
L 275.342445 246.692571 
L 264.147461 238.464 
L 252.952476 219.538286 
L 241.757492 222.829714 
L 230.562508 223.652571 
L 219.367524 211.309714 
L 208.172539 207.195429 
L 196.977555 208.018286 
L 185.782571 208.018286 
L 174.587586 215.424 
L 163.392602 215.424 
L 152.197618 217.892571 
L 141.002633 217.069714 
L 129.807649 216.246857 
L 118.612665 217.069714 
L 107.41768 210.486857 
L 96.222696 212.132571 
L 85.027712 212.132571 
L 73.832727 212.955429 
z
" style="fill:#9467bd;"/>
   </g>
   <g id="PolyCollection_16">
    <path clip-path="url(#pc79b08bf4a)" d="M 73.832727 212.955429 
L 73.832727 212.955429 
L 85.027712 212.132571 
L 96.222696 212.132571 
L 107.41768 210.486857 
L 118.612665 217.069714 
L 129.807649 216.246857 
L 141.002633 217.069714 
L 152.197618 217.892571 
L 163.392602 215.424 
L 174.587586 215.424 
L 185.782571 208.018286 
L 196.977555 208.018286 
L 208.172539 207.195429 
L 219.367524 211.309714 
L 230.562508 223.652571 
L 241.757492 222.829714 
L 252.952476 219.538286 
L 264.147461 238.464 
L 275.342445 246.692571 
L 286.537429 246.692571 
L 297.732414 253.275429 
L 308.927398 262.326857 
L 320.122382 269.732571 
L 331.317367 267.264 
L 342.512351 280.429714 
L 353.707335 277.961143 
L 364.90232 273.846857 
L 376.097304 272.201143 
L 387.292288 276.315429 
L 398.487273 279.606857 
L 398.487273 279.606857 
L 398.487273 279.606857 
L 387.292288 276.315429 
L 376.097304 272.201143 
L 364.90232 273.846857 
L 353.707335 277.961143 
L 342.512351 280.429714 
L 331.317367 267.264 
L 320.122382 269.732571 
L 308.927398 262.326857 
L 297.732414 253.275429 
L 286.537429 246.692571 
L 275.342445 246.692571 
L 264.147461 238.464 
L 252.952476 219.538286 
L 241.757492 222.829714 
L 230.562508 223.652571 
L 219.367524 211.309714 
L 208.172539 207.195429 
L 196.977555 208.018286 
L 185.782571 208.018286 
L 174.587586 215.424 
L 163.392602 215.424 
L 152.197618 217.892571 
L 141.002633 217.069714 
L 129.807649 216.246857 
L 118.612665 217.069714 
L 107.41768 210.486857 
L 96.222696 212.132571 
L 85.027712 212.132571 
L 73.832727 212.955429 
z
" style="fill:#8c564b;"/>
   </g>
   <g id="PolyCollection_17">
    <path clip-path="url(#pc79b08bf4a)" d="M 73.832727 203.081143 
L 73.832727 212.955429 
L 85.027712 212.132571 
L 96.222696 212.132571 
L 107.41768 210.486857 
L 118.612665 217.069714 
L 129.807649 216.246857 
L 141.002633 217.069714 
L 152.197618 217.892571 
L 163.392602 215.424 
L 174.587586 215.424 
L 185.782571 208.018286 
L 196.977555 208.018286 
L 208.172539 207.195429 
L 219.367524 211.309714 
L 230.562508 223.652571 
L 241.757492 222.829714 
L 252.952476 219.538286 
L 264.147461 238.464 
L 275.342445 246.692571 
L 286.537429 246.692571 
L 297.732414 253.275429 
L 308.927398 262.326857 
L 320.122382 269.732571 
L 331.317367 267.264 
L 342.512351 280.429714 
L 353.707335 277.961143 
L 364.90232 273.846857 
L 376.097304 272.201143 
L 387.292288 276.315429 
L 398.487273 279.606857 
L 398.487273 266.441143 
L 398.487273 266.441143 
L 387.292288 263.972571 
L 376.097304 258.212571 
L 364.90232 261.504 
L 353.707335 263.972571 
L 342.512351 265.618286 
L 331.317367 254.098286 
L 320.122382 255.744 
L 308.927398 248.338286 
L 297.732414 240.109714 
L 286.537429 233.526857 
L 275.342445 235.172571 
L 264.147461 226.121143 
L 252.952476 208.841143 
L 241.757492 211.309714 
L 230.562508 212.955429 
L 219.367524 203.904 
L 208.172539 198.966857 
L 196.977555 198.144 
L 185.782571 199.789714 
L 174.587586 208.018286 
L 163.392602 207.195429 
L 152.197618 208.841143 
L 141.002633 207.195429 
L 129.807649 207.195429 
L 118.612665 207.195429 
L 107.41768 201.435429 
L 96.222696 202.258286 
L 85.027712 203.081143 
L 73.832727 203.081143 
z
" style="fill:#e377c2;"/>
   </g>
   <g id="PolyCollection_18">
    <path clip-path="url(#pc79b08bf4a)" d="M 73.832727 193.206857 
L 73.832727 203.081143 
L 85.027712 203.081143 
L 96.222696 202.258286 
L 107.41768 201.435429 
L 118.612665 207.195429 
L 129.807649 207.195429 
L 141.002633 207.195429 
L 152.197618 208.841143 
L 163.392602 207.195429 
L 174.587586 208.018286 
L 185.782571 199.789714 
L 196.977555 198.144 
L 208.172539 198.966857 
L 219.367524 203.904 
L 230.562508 212.955429 
L 241.757492 211.309714 
L 252.952476 208.841143 
L 264.147461 226.121143 
L 275.342445 235.172571 
L 286.537429 233.526857 
L 297.732414 240.109714 
L 308.927398 248.338286 
L 320.122382 255.744 
L 331.317367 254.098286 
L 342.512351 265.618286 
L 353.707335 263.972571 
L 364.90232 261.504 
L 376.097304 258.212571 
L 387.292288 263.972571 
L 398.487273 266.441143 
L 398.487273 266.441143 
L 398.487273 266.441143 
L 387.292288 263.972571 
L 376.097304 258.212571 
L 364.90232 261.504 
L 353.707335 263.972571 
L 342.512351 265.618286 
L 331.317367 254.098286 
L 320.122382 255.744 
L 308.927398 248.338286 
L 297.732414 240.109714 
L 286.537429 233.526857 
L 275.342445 235.172571 
L 264.147461 226.121143 
L 252.952476 208.841143 
L 241.757492 211.309714 
L 230.562508 212.955429 
L 219.367524 203.904 
L 208.172539 198.966857 
L 196.977555 198.144 
L 185.782571 199.789714 
L 174.587586 198.144 
L 163.392602 198.144 
L 152.197618 198.966857 
L 141.002633 198.144 
L 129.807649 197.321143 
L 118.612665 198.144 
L 107.41768 193.206857 
L 96.222696 194.852571 
L 85.027712 194.852571 
L 73.832727 193.206857 
z
" style="fill:#7f7f7f;"/>
   </g>
   <g id="PolyCollection_19">
    <path clip-path="url(#pc79b08bf4a)" d="M 73.832727 188.269714 
L 73.832727 193.206857 
L 85.027712 194.852571 
L 96.222696 194.852571 
L 107.41768 193.206857 
L 118.612665 198.144 
L 129.807649 197.321143 
L 141.002633 198.144 
L 152.197618 198.966857 
L 163.392602 198.144 
L 174.587586 198.144 
L 185.782571 199.789714 
L 196.977555 198.144 
L 208.172539 198.966857 
L 219.367524 203.904 
L 230.562508 212.955429 
L 241.757492 211.309714 
L 252.952476 208.841143 
L 264.147461 226.121143 
L 275.342445 235.172571 
L 286.537429 233.526857 
L 297.732414 240.109714 
L 308.927398 248.338286 
L 320.122382 255.744 
L 331.317367 254.098286 
L 342.512351 265.618286 
L 353.707335 263.972571 
L 364.90232 261.504 
L 376.097304 258.212571 
L 387.292288 263.972571 
L 398.487273 266.441143 
L 398.487273 266.441143 
L 398.487273 266.441143 
L 387.292288 263.972571 
L 376.097304 258.212571 
L 364.90232 261.504 
L 353.707335 263.972571 
L 342.512351 265.618286 
L 331.317367 254.098286 
L 320.122382 255.744 
L 308.927398 248.338286 
L 297.732414 240.109714 
L 286.537429 233.526857 
L 275.342445 235.172571 
L 264.147461 226.121143 
L 252.952476 208.841143 
L 241.757492 211.309714 
L 230.562508 212.955429 
L 219.367524 203.904 
L 208.172539 198.966857 
L 196.977555 198.144 
L 185.782571 199.789714 
L 174.587586 198.144 
L 163.392602 198.144 
L 152.197618 198.966857 
L 141.002633 198.144 
L 129.807649 197.321143 
L 118.612665 198.144 
L 107.41768 184.155429 
L 96.222696 186.624 
L 85.027712 188.269714 
L 73.832727 188.269714 
z
" style="fill:#bcbd22;"/>
   </g>
   <g id="PolyCollection_20">
    <path clip-path="url(#pc79b08bf4a)" d="M 73.832727 179.218286 
L 73.832727 188.269714 
L 85.027712 188.269714 
L 96.222696 186.624 
L 107.41768 184.155429 
L 118.612665 198.144 
L 129.807649 197.321143 
L 141.002633 198.144 
L 152.197618 198.966857 
L 163.392602 198.144 
L 174.587586 198.144 
L 185.782571 199.789714 
L 196.977555 198.144 
L 208.172539 198.966857 
L 219.367524 203.904 
L 230.562508 212.955429 
L 241.757492 211.309714 
L 252.952476 208.841143 
L 264.147461 226.121143 
L 275.342445 235.172571 
L 286.537429 233.526857 
L 297.732414 240.109714 
L 308.927398 248.338286 
L 320.122382 255.744 
L 331.317367 254.098286 
L 342.512351 265.618286 
L 353.707335 263.972571 
L 364.90232 261.504 
L 376.097304 258.212571 
L 387.292288 263.972571 
L 398.487273 266.441143 
L 398.487273 266.441143 
L 398.487273 266.441143 
L 387.292288 263.972571 
L 376.097304 258.212571 
L 364.90232 261.504 
L 353.707335 263.972571 
L 342.512351 265.618286 
L 331.317367 254.098286 
L 320.122382 255.744 
L 308.927398 248.338286 
L 297.732414 240.109714 
L 286.537429 233.526857 
L 275.342445 235.172571 
L 264.147461 226.121143 
L 252.952476 208.841143 
L 241.757492 211.309714 
L 230.562508 212.955429 
L 219.367524 203.904 
L 208.172539 198.966857 
L 196.977555 198.144 
L 185.782571 190.738286 
L 174.587586 189.915429 
L 163.392602 189.092571 
L 152.197618 189.092571 
L 141.002633 189.092571 
L 129.807649 189.092571 
L 118.612665 189.092571 
L 107.41768 174.281143 
L 96.222696 177.572571 
L 85.027712 178.395429 
L 73.832727 179.218286 
z
" style="fill:#17becf;"/>
   </g>
   <g id="PolyCollection_21">
    <path clip-path="url(#pc79b08bf4a)" d="M 73.832727 179.218286 
L 73.832727 179.218286 
L 85.027712 178.395429 
L 96.222696 177.572571 
L 107.41768 174.281143 
L 118.612665 189.092571 
L 129.807649 189.092571 
L 141.002633 189.092571 
L 152.197618 189.092571 
L 163.392602 189.092571 
L 174.587586 189.915429 
L 185.782571 190.738286 
L 196.977555 198.144 
L 208.172539 198.966857 
L 219.367524 203.904 
L 230.562508 212.955429 
L 241.757492 211.309714 
L 252.952476 208.841143 
L 264.147461 226.121143 
L 275.342445 235.172571 
L 286.537429 233.526857 
L 297.732414 240.109714 
L 308.927398 248.338286 
L 320.122382 255.744 
L 331.317367 254.098286 
L 342.512351 265.618286 
L 353.707335 263.972571 
L 364.90232 261.504 
L 376.097304 258.212571 
L 387.292288 263.972571 
L 398.487273 266.441143 
L 398.487273 266.441143 
L 398.487273 266.441143 
L 387.292288 263.972571 
L 376.097304 258.212571 
L 364.90232 261.504 
L 353.707335 263.972571 
L 342.512351 265.618286 
L 331.317367 254.098286 
L 320.122382 255.744 
L 308.927398 248.338286 
L 297.732414 240.109714 
L 286.537429 233.526857 
L 275.342445 235.172571 
L 264.147461 226.121143 
L 252.952476 208.841143 
L 241.757492 211.309714 
L 230.562508 212.955429 
L 219.367524 203.904 
L 208.172539 198.966857 
L 196.977555 198.144 
L 185.782571 190.738286 
L 174.587586 189.915429 
L 163.392602 189.092571 
L 152.197618 189.092571 
L 141.002633 189.092571 
L 129.807649 189.092571 
L 118.612665 189.092571 
L 107.41768 174.281143 
L 96.222696 177.572571 
L 85.027712 178.395429 
L 73.832727 179.218286 
z
" style="fill:#1f77b4;"/>
   </g>
   <g id="PolyCollection_22">
    <path clip-path="url(#pc79b08bf4a)" d="M 73.832727 168.521143 
L 73.832727 179.218286 
L 85.027712 178.395429 
L 96.222696 177.572571 
L 107.41768 174.281143 
L 118.612665 189.092571 
L 129.807649 189.092571 
L 141.002633 189.092571 
L 152.197618 189.092571 
L 163.392602 189.092571 
L 174.587586 189.915429 
L 185.782571 190.738286 
L 196.977555 198.144 
L 208.172539 198.966857 
L 219.367524 203.904 
L 230.562508 212.955429 
L 241.757492 211.309714 
L 252.952476 208.841143 
L 264.147461 226.121143 
L 275.342445 235.172571 
L 286.537429 233.526857 
L 297.732414 240.109714 
L 308.927398 248.338286 
L 320.122382 255.744 
L 331.317367 254.098286 
L 342.512351 265.618286 
L 353.707335 263.972571 
L 364.90232 261.504 
L 376.097304 258.212571 
L 387.292288 263.972571 
L 398.487273 266.441143 
L 398.487273 266.441143 
L 398.487273 266.441143 
L 387.292288 263.972571 
L 376.097304 258.212571 
L 364.90232 261.504 
L 353.707335 263.972571 
L 342.512351 265.618286 
L 331.317367 254.098286 
L 320.122382 255.744 
L 308.927398 248.338286 
L 297.732414 240.109714 
L 286.537429 233.526857 
L 275.342445 235.172571 
L 264.147461 226.121143 
L 252.952476 208.841143 
L 241.757492 211.309714 
L 230.562508 212.955429 
L 219.367524 192.384 
L 208.172539 188.269714 
L 196.977555 186.624 
L 185.782571 179.218286 
L 174.587586 180.041143 
L 163.392602 180.041143 
L 152.197618 179.218286 
L 141.002633 178.395429 
L 129.807649 179.218286 
L 118.612665 180.041143 
L 107.41768 164.406857 
L 96.222696 168.521143 
L 85.027712 168.521143 
L 73.832727 168.521143 
z
" style="fill:#ff7f0e;"/>
   </g>
   <g id="PolyCollection_23">
    <path clip-path="url(#pc79b08bf4a)" d="M 73.832727 160.292571 
L 73.832727 168.521143 
L 85.027712 168.521143 
L 96.222696 168.521143 
L 107.41768 164.406857 
L 118.612665 180.041143 
L 129.807649 179.218286 
L 141.002633 178.395429 
L 152.197618 179.218286 
L 163.392602 180.041143 
L 174.587586 180.041143 
L 185.782571 179.218286 
L 196.977555 186.624 
L 208.172539 188.269714 
L 219.367524 192.384 
L 230.562508 212.955429 
L 241.757492 211.309714 
L 252.952476 208.841143 
L 264.147461 226.121143 
L 275.342445 235.172571 
L 286.537429 233.526857 
L 297.732414 240.109714 
L 308.927398 248.338286 
L 320.122382 255.744 
L 331.317367 254.098286 
L 342.512351 265.618286 
L 353.707335 263.972571 
L 364.90232 261.504 
L 376.097304 258.212571 
L 387.292288 263.972571 
L 398.487273 266.441143 
L 398.487273 266.441143 
L 398.487273 266.441143 
L 387.292288 263.972571 
L 376.097304 258.212571 
L 364.90232 261.504 
L 353.707335 263.972571 
L 342.512351 265.618286 
L 331.317367 254.098286 
L 320.122382 255.744 
L 308.927398 248.338286 
L 297.732414 226.121143 
L 286.537429 221.184 
L 275.342445 222.006857 
L 264.147461 213.778286 
L 252.952476 197.321143 
L 241.757492 198.966857 
L 230.562508 201.435429 
L 219.367524 180.864 
L 208.172539 175.926857 
L 196.977555 175.104 
L 185.782571 169.344 
L 174.587586 170.989714 
L 163.392602 171.812571 
L 152.197618 170.166857 
L 141.002633 170.166857 
L 129.807649 170.166857 
L 118.612665 170.166857 
L 107.41768 155.355429 
L 96.222696 160.292571 
L 85.027712 159.469714 
L 73.832727 160.292571 
z
" style="fill:#2ca02c;"/>
   </g>
   <g id="PolyCollection_24">
    <path clip-path="url(#pc79b08bf4a)" d="M 73.832727 150.418286 
L 73.832727 160.292571 
L 85.027712 159.469714 
L 96.222696 160.292571 
L 107.41768 155.355429 
L 118.612665 170.166857 
L 129.807649 170.166857 
L 141.002633 170.166857 
L 152.197618 170.166857 
L 163.392602 171.812571 
L 174.587586 170.989714 
L 185.782571 169.344 
L 196.977555 175.104 
L 208.172539 175.926857 
L 219.367524 180.864 
L 230.562508 201.435429 
L 241.757492 198.966857 
L 252.952476 197.321143 
L 264.147461 213.778286 
L 275.342445 222.006857 
L 286.537429 221.184 
L 297.732414 226.121143 
L 308.927398 248.338286 
L 320.122382 255.744 
L 331.317367 254.098286 
L 342.512351 265.618286 
L 353.707335 263.972571 
L 364.90232 261.504 
L 376.097304 258.212571 
L 387.292288 263.972571 
L 398.487273 266.441143 
L 398.487273 266.441143 
L 398.487273 266.441143 
L 387.292288 263.972571 
L 376.097304 258.212571 
L 364.90232 261.504 
L 353.707335 263.972571 
L 342.512351 265.618286 
L 331.317367 254.098286 
L 320.122382 255.744 
L 308.927398 248.338286 
L 297.732414 226.121143 
L 286.537429 221.184 
L 275.342445 222.006857 
L 264.147461 213.778286 
L 252.952476 197.321143 
L 241.757492 198.966857 
L 230.562508 201.435429 
L 219.367524 180.864 
L 208.172539 175.926857 
L 196.977555 175.104 
L 185.782571 169.344 
L 174.587586 170.989714 
L 163.392602 171.812571 
L 152.197618 168.521143 
L 141.002633 160.292571 
L 129.807649 159.469714 
L 118.612665 160.292571 
L 107.41768 146.304 
L 96.222696 150.418286 
L 85.027712 150.418286 
L 73.832727 150.418286 
z
" style="fill:#d62728;"/>
   </g>
   <g id="PolyCollection_25">
    <path clip-path="url(#pc79b08bf4a)" d="M 73.832727 141.366857 
L 73.832727 150.418286 
L 85.027712 150.418286 
L 96.222696 150.418286 
L 107.41768 146.304 
L 118.612665 160.292571 
L 129.807649 159.469714 
L 141.002633 160.292571 
L 152.197618 168.521143 
L 163.392602 171.812571 
L 174.587586 170.989714 
L 185.782571 169.344 
L 196.977555 175.104 
L 208.172539 175.926857 
L 219.367524 180.864 
L 230.562508 201.435429 
L 241.757492 198.966857 
L 252.952476 197.321143 
L 264.147461 213.778286 
L 275.342445 222.006857 
L 286.537429 221.184 
L 297.732414 226.121143 
L 308.927398 248.338286 
L 320.122382 255.744 
L 331.317367 254.098286 
L 342.512351 265.618286 
L 353.707335 263.972571 
L 364.90232 261.504 
L 376.097304 258.212571 
L 387.292288 263.972571 
L 398.487273 266.441143 
L 398.487273 253.275429 
L 398.487273 253.275429 
L 387.292288 249.984 
L 376.097304 242.578286 
L 364.90232 244.224 
L 353.707335 248.338286 
L 342.512351 249.161143 
L 331.317367 239.286857 
L 320.122382 241.755429 
L 308.927398 234.349714 
L 297.732414 212.955429 
L 286.537429 209.664 
L 275.342445 211.309714 
L 264.147461 202.258286 
L 252.952476 186.624 
L 241.757492 187.446857 
L 230.562508 189.092571 
L 219.367524 170.166857 
L 208.172539 166.052571 
L 196.977555 164.406857 
L 185.782571 161.115429 
L 174.587586 161.115429 
L 163.392602 162.761143 
L 152.197618 158.646857 
L 141.002633 151.241143 
L 129.807649 149.595429 
L 118.612665 149.595429 
L 107.41768 136.429714 
L 96.222696 141.366857 
L 85.027712 140.544 
L 73.832727 141.366857 
z
" style="fill:#9467bd;"/>
   </g>
   <g id="PolyCollection_26">
    <path clip-path="url(#pc79b08bf4a)" d="M 73.832727 129.024 
L 73.832727 141.366857 
L 85.027712 140.544 
L 96.222696 141.366857 
L 107.41768 136.429714 
L 118.612665 149.595429 
L 129.807649 149.595429 
L 141.002633 151.241143 
L 152.197618 158.646857 
L 163.392602 162.761143 
L 174.587586 161.115429 
L 185.782571 161.115429 
L 196.977555 164.406857 
L 208.172539 166.052571 
L 219.367524 170.166857 
L 230.562508 189.092571 
L 241.757492 187.446857 
L 252.952476 186.624 
L 264.147461 202.258286 
L 275.342445 211.309714 
L 286.537429 209.664 
L 297.732414 212.955429 
L 308.927398 234.349714 
L 320.122382 241.755429 
L 331.317367 239.286857 
L 342.512351 249.161143 
L 353.707335 248.338286 
L 364.90232 244.224 
L 376.097304 242.578286 
L 387.292288 249.984 
L 398.487273 253.275429 
L 398.487273 253.275429 
L 398.487273 253.275429 
L 387.292288 249.984 
L 376.097304 242.578286 
L 364.90232 244.224 
L 353.707335 235.995429 
L 342.512351 230.235429 
L 331.317367 222.006857 
L 320.122382 225.298286 
L 308.927398 217.892571 
L 297.732414 197.321143 
L 286.537429 195.675429 
L 275.342445 196.498286 
L 264.147461 186.624 
L 252.952476 172.635429 
L 241.757492 175.104 
L 230.562508 175.926857 
L 219.367524 157.001143 
L 208.172539 153.709714 
L 196.977555 152.886857 
L 185.782571 149.595429 
L 174.587586 151.241143 
L 163.392602 153.709714 
L 152.197618 148.772571 
L 141.002633 140.544 
L 129.807649 139.721143 
L 118.612665 138.898286 
L 107.41768 126.555429 
L 96.222696 130.669714 
L 85.027712 129.024 
L 73.832727 129.024 
z
" style="fill:#8c564b;"/>
   </g>
   <g id="PolyCollection_27">
    <path clip-path="url(#pc79b08bf4a)" d="M 73.832727 121.618286 
L 73.832727 129.024 
L 85.027712 129.024 
L 96.222696 130.669714 
L 107.41768 126.555429 
L 118.612665 138.898286 
L 129.807649 139.721143 
L 141.002633 140.544 
L 152.197618 148.772571 
L 163.392602 153.709714 
L 174.587586 151.241143 
L 185.782571 149.595429 
L 196.977555 152.886857 
L 208.172539 153.709714 
L 219.367524 157.001143 
L 230.562508 175.926857 
L 241.757492 175.104 
L 252.952476 172.635429 
L 264.147461 186.624 
L 275.342445 196.498286 
L 286.537429 195.675429 
L 297.732414 197.321143 
L 308.927398 217.892571 
L 320.122382 225.298286 
L 331.317367 222.006857 
L 342.512351 230.235429 
L 353.707335 235.995429 
L 364.90232 244.224 
L 376.097304 242.578286 
L 387.292288 249.984 
L 398.487273 253.275429 
L 398.487273 253.275429 
L 398.487273 253.275429 
L 387.292288 249.984 
L 376.097304 242.578286 
L 364.90232 244.224 
L 353.707335 235.995429 
L 342.512351 230.235429 
L 331.317367 222.006857 
L 320.122382 225.298286 
L 308.927398 217.892571 
L 297.732414 197.321143 
L 286.537429 195.675429 
L 275.342445 196.498286 
L 264.147461 186.624 
L 252.952476 172.635429 
L 241.757492 175.104 
L 230.562508 175.926857 
L 219.367524 157.001143 
L 208.172539 153.709714 
L 196.977555 152.886857 
L 185.782571 149.595429 
L 174.587586 143.835429 
L 163.392602 145.481143 
L 152.197618 141.366857 
L 141.002633 132.315429 
L 129.807649 130.669714 
L 118.612665 129.024 
L 107.41768 118.326857 
L 96.222696 123.264 
L 85.027712 122.441143 
L 73.832727 121.618286 
z
" style="fill:#e377c2;"/>
   </g>
   <g id="PolyCollection_28">
    <path clip-path="url(#pc79b08bf4a)" d="M 73.832727 116.681143 
L 73.832727 121.618286 
L 85.027712 122.441143 
L 96.222696 123.264 
L 107.41768 118.326857 
L 118.612665 129.024 
L 129.807649 130.669714 
L 141.002633 132.315429 
L 152.197618 141.366857 
L 163.392602 145.481143 
L 174.587586 143.835429 
L 185.782571 149.595429 
L 196.977555 152.886857 
L 208.172539 153.709714 
L 219.367524 157.001143 
L 230.562508 175.926857 
L 241.757492 175.104 
L 252.952476 172.635429 
L 264.147461 186.624 
L 275.342445 196.498286 
L 286.537429 195.675429 
L 297.732414 197.321143 
L 308.927398 217.892571 
L 320.122382 225.298286 
L 331.317367 222.006857 
L 342.512351 230.235429 
L 353.707335 235.995429 
L 364.90232 244.224 
L 376.097304 242.578286 
L 387.292288 249.984 
L 398.487273 253.275429 
L 398.487273 240.932571 
L 398.487273 240.932571 
L 387.292288 238.464 
L 376.097304 233.526857 
L 364.90232 235.995429 
L 353.707335 223.652571 
L 342.512351 216.246857 
L 331.317367 208.018286 
L 320.122382 210.486857 
L 308.927398 204.726857 
L 297.732414 183.332571 
L 286.537429 181.686857 
L 275.342445 183.332571 
L 264.147461 174.281143 
L 252.952476 161.115429 
L 241.757492 162.761143 
L 230.562508 162.761143 
L 219.367524 146.304 
L 208.172539 143.835429 
L 196.977555 141.366857 
L 185.782571 139.721143 
L 174.587586 134.784 
L 163.392602 135.606857 
L 152.197618 130.669714 
L 141.002633 122.441143 
L 129.807649 121.618286 
L 118.612665 119.149714 
L 107.41768 109.275429 
L 96.222696 115.035429 
L 85.027712 115.858286 
L 73.832727 116.681143 
z
" style="fill:#7f7f7f;"/>
   </g>
   <g id="PolyCollection_29">
    <path clip-path="url(#pc79b08bf4a)" d="M 73.832727 107.629714 
L 73.832727 116.681143 
L 85.027712 115.858286 
L 96.222696 115.035429 
L 107.41768 109.275429 
L 118.612665 119.149714 
L 129.807649 121.618286 
L 141.002633 122.441143 
L 152.197618 130.669714 
L 163.392602 135.606857 
L 174.587586 134.784 
L 185.782571 139.721143 
L 196.977555 141.366857 
L 208.172539 143.835429 
L 219.367524 146.304 
L 230.562508 162.761143 
L 241.757492 162.761143 
L 252.952476 161.115429 
L 264.147461 174.281143 
L 275.342445 183.332571 
L 286.537429 181.686857 
L 297.732414 183.332571 
L 308.927398 204.726857 
L 320.122382 210.486857 
L 331.317367 208.018286 
L 342.512351 216.246857 
L 353.707335 223.652571 
L 364.90232 235.995429 
L 376.097304 233.526857 
L 387.292288 238.464 
L 398.487273 240.932571 
L 398.487273 240.932571 
L 398.487273 240.932571 
L 387.292288 238.464 
L 376.097304 233.526857 
L 364.90232 235.995429 
L 353.707335 223.652571 
L 342.512351 216.246857 
L 331.317367 208.018286 
L 320.122382 210.486857 
L 308.927398 204.726857 
L 297.732414 183.332571 
L 286.537429 181.686857 
L 275.342445 183.332571 
L 264.147461 174.281143 
L 252.952476 161.115429 
L 241.757492 162.761143 
L 230.562508 162.761143 
L 219.367524 146.304 
L 208.172539 143.835429 
L 196.977555 141.366857 
L 185.782571 139.721143 
L 174.587586 134.784 
L 163.392602 135.606857 
L 152.197618 130.669714 
L 141.002633 122.441143 
L 129.807649 121.618286 
L 118.612665 119.149714 
L 107.41768 109.275429 
L 96.222696 105.984 
L 85.027712 107.629714 
L 73.832727 107.629714 
z
" style="fill:#bcbd22;"/>
   </g>
   <g id="PolyCollection_30">
    <path clip-path="url(#pc79b08bf4a)" d="M 73.832727 100.224 
L 73.832727 107.629714 
L 85.027712 107.629714 
L 96.222696 105.984 
L 107.41768 109.275429 
L 118.612665 119.149714 
L 129.807649 121.618286 
L 141.002633 122.441143 
L 152.197618 130.669714 
L 163.392602 135.606857 
L 174.587586 134.784 
L 185.782571 139.721143 
L 196.977555 141.366857 
L 208.172539 143.835429 
L 219.367524 146.304 
L 230.562508 162.761143 
L 241.757492 162.761143 
L 252.952476 161.115429 
L 264.147461 174.281143 
L 275.342445 183.332571 
L 286.537429 181.686857 
L 297.732414 183.332571 
L 308.927398 204.726857 
L 320.122382 210.486857 
L 331.317367 208.018286 
L 342.512351 216.246857 
L 353.707335 223.652571 
L 364.90232 235.995429 
L 376.097304 233.526857 
L 387.292288 238.464 
L 398.487273 240.932571 
L 398.487273 240.932571 
L 398.487273 240.932571 
L 387.292288 238.464 
L 376.097304 233.526857 
L 364.90232 235.995429 
L 353.707335 223.652571 
L 342.512351 216.246857 
L 331.317367 193.206857 
L 320.122382 196.498286 
L 308.927398 193.206857 
L 297.732414 170.989714 
L 286.537429 168.521143 
L 275.342445 170.989714 
L 264.147461 162.761143 
L 252.952476 150.418286 
L 241.757492 151.241143 
L 230.562508 150.418286 
L 219.367524 136.429714 
L 208.172539 134.784 
L 196.977555 133.138286 
L 185.782571 130.669714 
L 174.587586 124.909714 
L 163.392602 126.555429 
L 152.197618 122.441143 
L 141.002633 113.389714 
L 129.807649 111.744 
L 118.612665 110.098286 
L 107.41768 101.046857 
L 96.222696 98.578286 
L 85.027712 99.401143 
L 73.832727 100.224 
z
" style="fill:#17becf;"/>
   </g>
   <g id="PolyCollection_31">
    <path clip-path="url(#pc79b08bf4a)" d="M 73.832727 91.172571 
L 73.832727 100.224 
L 85.027712 99.401143 
L 96.222696 98.578286 
L 107.41768 101.046857 
L 118.612665 110.098286 
L 129.807649 111.744 
L 141.002633 113.389714 
L 152.197618 122.441143 
L 163.392602 126.555429 
L 174.587586 124.909714 
L 185.782571 130.669714 
L 196.977555 133.138286 
L 208.172539 134.784 
L 219.367524 136.429714 
L 230.562508 150.418286 
L 241.757492 151.241143 
L 252.952476 150.418286 
L 264.147461 162.761143 
L 275.342445 170.989714 
L 286.537429 168.521143 
L 297.732414 170.989714 
L 308.927398 193.206857 
L 320.122382 196.498286 
L 331.317367 193.206857 
L 342.512351 216.246857 
L 353.707335 223.652571 
L 364.90232 235.995429 
L 376.097304 233.526857 
L 387.292288 238.464 
L 398.487273 240.932571 
L 398.487273 240.932571 
L 398.487273 240.932571 
L 387.292288 238.464 
L 376.097304 233.526857 
L 364.90232 235.995429 
L 353.707335 223.652571 
L 342.512351 216.246857 
L 331.317367 193.206857 
L 320.122382 196.498286 
L 308.927398 193.206857 
L 297.732414 170.989714 
L 286.537429 168.521143 
L 275.342445 170.989714 
L 264.147461 162.761143 
L 252.952476 150.418286 
L 241.757492 151.241143 
L 230.562508 150.418286 
L 219.367524 136.429714 
L 208.172539 134.784 
L 196.977555 133.138286 
L 185.782571 130.669714 
L 174.587586 118.326857 
L 163.392602 119.149714 
L 152.197618 114.212571 
L 141.002633 104.338286 
L 129.807649 101.869714 
L 118.612665 99.401143 
L 107.41768 91.172571 
L 96.222696 89.526857 
L 85.027712 91.172571 
L 73.832727 91.172571 
z
" style="fill:#1f77b4;"/>
   </g>
   <g id="PolyCollection_32">
    <path clip-path="url(#pc79b08bf4a)" d="M 73.832727 79.652571 
L 73.832727 91.172571 
L 85.027712 91.172571 
L 96.222696 89.526857 
L 107.41768 91.172571 
L 118.612665 99.401143 
L 129.807649 101.869714 
L 141.002633 104.338286 
L 152.197618 114.212571 
L 163.392602 119.149714 
L 174.587586 118.326857 
L 185.782571 130.669714 
L 196.977555 133.138286 
L 208.172539 134.784 
L 219.367524 136.429714 
L 230.562508 150.418286 
L 241.757492 151.241143 
L 252.952476 150.418286 
L 264.147461 162.761143 
L 275.342445 170.989714 
L 286.537429 168.521143 
L 297.732414 170.989714 
L 308.927398 193.206857 
L 320.122382 196.498286 
L 331.317367 193.206857 
L 342.512351 216.246857 
L 353.707335 223.652571 
L 364.90232 235.995429 
L 376.097304 233.526857 
L 387.292288 238.464 
L 398.487273 240.932571 
L 398.487273 225.298286 
L 398.487273 225.298286 
L 387.292288 222.006857 
L 376.097304 215.424 
L 364.90232 217.892571 
L 353.707335 205.549714 
L 342.512351 198.966857 
L 331.317367 177.572571 
L 320.122382 180.041143 
L 308.927398 178.395429 
L 297.732414 155.355429 
L 286.537429 154.532571 
L 275.342445 156.178286 
L 264.147461 146.304 
L 252.952476 135.606857 
L 241.757492 137.252571 
L 230.562508 135.606857 
L 219.367524 123.264 
L 208.172539 122.441143 
L 196.977555 119.149714 
L 185.782571 118.326857 
L 174.587586 107.629714 
L 163.392602 109.275429 
L 152.197618 105.161143 
L 141.002633 94.464 
L 129.807649 91.172571 
L 118.612665 87.881143 
L 107.41768 80.475429 
L 96.222696 79.652571 
L 85.027712 80.475429 
L 73.832727 79.652571 
z
" style="fill:#ff7f0e;"/>
   </g>
   <g id="PolyCollection_33">
    <path clip-path="url(#pc79b08bf4a)" d="M 73.832727 70.601143 
L 73.832727 79.652571 
L 85.027712 80.475429 
L 96.222696 79.652571 
L 107.41768 80.475429 
L 118.612665 87.881143 
L 129.807649 91.172571 
L 141.002633 94.464 
L 152.197618 105.161143 
L 163.392602 109.275429 
L 174.587586 107.629714 
L 185.782571 118.326857 
L 196.977555 119.149714 
L 208.172539 122.441143 
L 219.367524 123.264 
L 230.562508 135.606857 
L 241.757492 137.252571 
L 252.952476 135.606857 
L 264.147461 146.304 
L 275.342445 156.178286 
L 286.537429 154.532571 
L 297.732414 155.355429 
L 308.927398 178.395429 
L 320.122382 180.041143 
L 331.317367 177.572571 
L 342.512351 198.966857 
L 353.707335 205.549714 
L 364.90232 217.892571 
L 376.097304 215.424 
L 387.292288 222.006857 
L 398.487273 225.298286 
L 398.487273 212.132571 
L 398.487273 212.132571 
L 387.292288 208.018286 
L 376.097304 200.612571 
L 364.90232 202.258286 
L 353.707335 189.915429 
L 342.512351 184.155429 
L 331.317367 165.229714 
L 320.122382 166.052571 
L 308.927398 164.406857 
L 297.732414 143.012571 
L 286.537429 142.189714 
L 275.342445 143.012571 
L 264.147461 133.961143 
L 252.952476 124.086857 
L 241.757492 126.555429 
L 230.562508 124.086857 
L 219.367524 113.389714 
L 208.172539 111.744 
L 196.977555 109.275429 
L 185.782571 110.921143 
L 174.587586 99.401143 
L 163.392602 102.692571 
L 152.197618 102.692571 
L 141.002633 87.058286 
L 129.807649 82.944 
L 118.612665 78.829714 
L 107.41768 70.601143 
L 96.222696 70.601143 
L 85.027712 70.601143 
L 73.832727 70.601143 
z
" style="fill:#2ca02c;"/>
   </g>
   <g id="PolyCollection_34">
    <path clip-path="url(#pc79b08bf4a)" d="M 73.832727 66.486857 
L 73.832727 70.601143 
L 85.027712 70.601143 
L 96.222696 70.601143 
L 107.41768 70.601143 
L 118.612665 78.829714 
L 129.807649 82.944 
L 141.002633 87.058286 
L 152.197618 102.692571 
L 163.392602 102.692571 
L 174.587586 99.401143 
L 185.782571 110.921143 
L 196.977555 109.275429 
L 208.172539 111.744 
L 219.367524 113.389714 
L 230.562508 124.086857 
L 241.757492 126.555429 
L 252.952476 124.086857 
L 264.147461 133.961143 
L 275.342445 143.012571 
L 286.537429 142.189714 
L 297.732414 143.012571 
L 308.927398 164.406857 
L 320.122382 166.052571 
L 331.317367 165.229714 
L 342.512351 184.155429 
L 353.707335 189.915429 
L 364.90232 202.258286 
L 376.097304 200.612571 
L 387.292288 208.018286 
L 398.487273 212.132571 
L 398.487273 212.132571 
L 398.487273 212.132571 
L 387.292288 208.018286 
L 376.097304 200.612571 
L 364.90232 202.258286 
L 353.707335 189.915429 
L 342.512351 184.155429 
L 331.317367 165.229714 
L 320.122382 166.052571 
L 308.927398 151.241143 
L 297.732414 130.669714 
L 286.537429 131.492571 
L 275.342445 129.846857 
L 264.147461 121.618286 
L 252.952476 112.566857 
L 241.757492 114.212571 
L 230.562508 112.566857 
L 219.367524 103.515429 
L 208.172539 101.046857 
L 196.977555 99.401143 
L 185.782571 103.515429 
L 174.587586 91.172571 
L 163.392602 93.641143 
L 152.197618 94.464 
L 141.002633 78.006857 
L 129.807649 74.715429 
L 118.612665 71.424 
L 107.41768 64.018286 
L 96.222696 63.195429 
L 85.027712 64.018286 
L 73.832727 66.486857 
z
" style="fill:#d62728;"/>
   </g>
   <g id="PolyCollection_35">
    <path clip-path="url(#pc79b08bf4a)" d="M 73.832727 66.486857 
L 73.832727 66.486857 
L 85.027712 64.018286 
L 96.222696 63.195429 
L 107.41768 64.018286 
L 118.612665 71.424 
L 129.807649 74.715429 
L 141.002633 78.006857 
L 152.197618 94.464 
L 163.392602 93.641143 
L 174.587586 91.172571 
L 185.782571 103.515429 
L 196.977555 99.401143 
L 208.172539 101.046857 
L 219.367524 103.515429 
L 230.562508 112.566857 
L 241.757492 114.212571 
L 252.952476 112.566857 
L 264.147461 121.618286 
L 275.342445 129.846857 
L 286.537429 131.492571 
L 297.732414 130.669714 
L 308.927398 151.241143 
L 320.122382 166.052571 
L 331.317367 165.229714 
L 342.512351 184.155429 
L 353.707335 189.915429 
L 364.90232 202.258286 
L 376.097304 200.612571 
L 387.292288 208.018286 
L 398.487273 212.132571 
L 398.487273 210.486857 
L 398.487273 210.486857 
L 387.292288 188.269714 
L 376.097304 184.155429 
L 364.90232 185.801143 
L 353.707335 172.635429 
L 342.512351 170.166857 
L 331.317367 152.064 
L 320.122382 148.772571 
L 308.927398 135.606857 
L 297.732414 114.212571 
L 286.537429 116.681143 
L 275.342445 114.212571 
L 264.147461 106.806857 
L 252.952476 99.401143 
L 241.757492 100.224 
L 230.562508 97.755429 
L 219.367524 91.995429 
L 208.172539 88.704 
L 196.977555 86.235429 
L 185.782571 91.995429 
L 174.587586 81.298286 
L 163.392602 82.944 
L 152.197618 82.944 
L 141.002633 65.664 
L 129.807649 66.486857 
L 118.612665 64.841143 
L 107.41768 64.018286 
L 96.222696 63.195429 
L 85.027712 64.018286 
L 73.832727 66.486857 
z
" style="fill:#9467bd;"/>
   </g>
   <g id="PolyCollection_36">
    <path clip-path="url(#pc79b08bf4a)" d="M 73.832727 66.486857 
L 73.832727 66.486857 
L 85.027712 64.018286 
L 96.222696 63.195429 
L 107.41768 64.018286 
L 118.612665 64.841143 
L 129.807649 66.486857 
L 141.002633 65.664 
L 152.197618 82.944 
L 163.392602 82.944 
L 174.587586 81.298286 
L 185.782571 91.995429 
L 196.977555 86.235429 
L 208.172539 88.704 
L 219.367524 91.995429 
L 230.562508 97.755429 
L 241.757492 100.224 
L 252.952476 99.401143 
L 264.147461 106.806857 
L 275.342445 114.212571 
L 286.537429 116.681143 
L 297.732414 114.212571 
L 308.927398 135.606857 
L 320.122382 148.772571 
L 331.317367 152.064 
L 342.512351 170.166857 
L 353.707335 172.635429 
L 364.90232 185.801143 
L 376.097304 184.155429 
L 387.292288 188.269714 
L 398.487273 210.486857 
L 398.487273 197.321143 
L 398.487273 197.321143 
L 387.292288 178.395429 
L 376.097304 178.395429 
L 364.90232 169.344 
L 353.707335 156.178286 
L 342.512351 154.532571 
L 331.317367 138.075429 
L 320.122382 133.961143 
L 308.927398 120.795429 
L 297.732414 100.224 
L 286.537429 102.692571 
L 275.342445 99.401143 
L 264.147461 91.172571 
L 252.952476 85.412571 
L 241.757492 87.058286 
L 230.562508 85.412571 
L 219.367524 81.298286 
L 208.172539 76.361143 
L 196.977555 74.715429 
L 185.782571 82.121143 
L 174.587586 72.246857 
L 163.392602 73.069714 
L 152.197618 71.424 
L 141.002633 64.018286 
L 129.807649 66.486857 
L 118.612665 64.841143 
L 107.41768 64.018286 
L 96.222696 63.195429 
L 85.027712 64.018286 
L 73.832727 66.486857 
z
" style="fill:#8c564b;"/>
   </g>
   <g id="PolyCollection_37">
    <path clip-path="url(#pc79b08bf4a)" d="M 73.832727 66.486857 
L 73.832727 66.486857 
L 85.027712 64.018286 
L 96.222696 63.195429 
L 107.41768 64.018286 
L 118.612665 64.841143 
L 129.807649 66.486857 
L 141.002633 64.018286 
L 152.197618 71.424 
L 163.392602 73.069714 
L 174.587586 72.246857 
L 185.782571 82.121143 
L 196.977555 74.715429 
L 208.172539 76.361143 
L 219.367524 81.298286 
L 230.562508 85.412571 
L 241.757492 87.058286 
L 252.952476 85.412571 
L 264.147461 91.172571 
L 275.342445 99.401143 
L 286.537429 102.692571 
L 297.732414 100.224 
L 308.927398 120.795429 
L 320.122382 133.961143 
L 331.317367 138.075429 
L 342.512351 154.532571 
L 353.707335 156.178286 
L 364.90232 169.344 
L 376.097304 178.395429 
L 387.292288 178.395429 
L 398.487273 197.321143 
L 398.487273 183.332571 
L 398.487273 183.332571 
L 387.292288 163.584 
L 376.097304 162.761143 
L 364.90232 152.886857 
L 353.707335 139.721143 
L 342.512351 138.898286 
L 331.317367 124.909714 
L 320.122382 119.972571 
L 308.927398 106.806857 
L 297.732414 85.412571 
L 286.537429 89.526857 
L 275.342445 85.412571 
L 264.147461 76.361143 
L 252.952476 72.246857 
L 241.757492 73.069714 
L 230.562508 72.246857 
L 219.367524 69.778286 
L 208.172539 65.664 
L 196.977555 64.841143 
L 185.782571 72.246857 
L 174.587586 63.195429 
L 163.392602 64.841143 
L 152.197618 64.018286 
L 141.002633 64.018286 
L 129.807649 66.486857 
L 118.612665 64.841143 
L 107.41768 64.018286 
L 96.222696 63.195429 
L 85.027712 64.018286 
L 73.832727 66.486857 
z
" style="fill:#e377c2;"/>
   </g>
   <g id="PolyCollection_38">
    <path clip-path="url(#pc79b08bf4a)" d="M 73.832727 66.486857 
L 73.832727 66.486857 
L 85.027712 64.018286 
L 96.222696 63.195429 
L 107.41768 64.018286 
L 118.612665 64.841143 
L 129.807649 66.486857 
L 141.002633 64.018286 
L 152.197618 64.018286 
L 163.392602 64.841143 
L 174.587586 63.195429 
L 185.782571 72.246857 
L 196.977555 64.841143 
L 208.172539 65.664 
L 219.367524 69.778286 
L 230.562508 72.246857 
L 241.757492 73.069714 
L 252.952476 72.246857 
L 264.147461 76.361143 
L 275.342445 85.412571 
L 286.537429 89.526857 
L 297.732414 85.412571 
L 308.927398 106.806857 
L 320.122382 119.972571 
L 331.317367 124.909714 
L 342.512351 138.898286 
L 353.707335 139.721143 
L 364.90232 152.886857 
L 376.097304 162.761143 
L 387.292288 163.584 
L 398.487273 183.332571 
L 398.487273 183.332571 
L 398.487273 183.332571 
L 387.292288 163.584 
L 376.097304 162.761143 
L 364.90232 136.429714 
L 353.707335 124.909714 
L 342.512351 123.264 
L 331.317367 110.921143 
L 320.122382 105.161143 
L 308.927398 94.464 
L 297.732414 72.246857 
L 286.537429 76.361143 
L 275.342445 71.424 
L 264.147461 61.549714 
L 252.952476 59.904 
L 241.757492 59.904 
L 230.562508 58.258286 
L 219.367524 57.435429 
L 208.172539 54.144 
L 196.977555 54.144 
L 185.782571 64.841143 
L 174.587586 59.904 
L 163.392602 64.841143 
L 152.197618 64.018286 
L 141.002633 64.018286 
L 129.807649 66.486857 
L 118.612665 64.841143 
L 107.41768 64.018286 
L 96.222696 63.195429 
L 85.027712 64.018286 
L 73.832727 66.486857 
z
" style="fill:#7f7f7f;"/>
   </g>
   <g id="PolyCollection_39">
    <path clip-path="url(#pc79b08bf4a)" d="M 73.832727 66.486857 
L 73.832727 66.486857 
L 85.027712 64.018286 
L 96.222696 63.195429 
L 107.41768 64.018286 
L 118.612665 64.841143 
L 129.807649 66.486857 
L 141.002633 64.018286 
L 152.197618 64.018286 
L 163.392602 64.841143 
L 174.587586 59.904 
L 185.782571 64.841143 
L 196.977555 54.144 
L 208.172539 54.144 
L 219.367524 57.435429 
L 230.562508 58.258286 
L 241.757492 59.904 
L 252.952476 59.904 
L 264.147461 61.549714 
L 275.342445 71.424 
L 286.537429 76.361143 
L 297.732414 72.246857 
L 308.927398 94.464 
L 320.122382 105.161143 
L 331.317367 110.921143 
L 342.512351 123.264 
L 353.707335 124.909714 
L 364.90232 136.429714 
L 376.097304 162.761143 
L 387.292288 163.584 
L 398.487273 183.332571 
L 398.487273 169.344 
L 398.487273 169.344 
L 387.292288 150.418286 
L 376.097304 148.772571 
L 364.90232 121.618286 
L 353.707335 111.744 
L 342.512351 109.275429 
L 331.317367 98.578286 
L 320.122382 91.995429 
L 308.927398 82.944 
L 297.732414 63.195429 
L 286.537429 68.132571 
L 275.342445 62.372571 
L 264.147461 60.726857 
L 252.952476 59.904 
L 241.757492 59.904 
L 230.562508 58.258286 
L 219.367524 57.435429 
L 208.172539 54.144 
L 196.977555 54.144 
L 185.782571 64.841143 
L 174.587586 59.904 
L 163.392602 64.841143 
L 152.197618 64.018286 
L 141.002633 64.018286 
L 129.807649 66.486857 
L 118.612665 64.841143 
L 107.41768 64.018286 
L 96.222696 63.195429 
L 85.027712 64.018286 
L 73.832727 66.486857 
z
" style="fill:#bcbd22;"/>
   </g>
   <g id="PolyCollection_40">
    <path clip-path="url(#pc79b08bf4a)" d="M 73.832727 66.486857 
L 73.832727 66.486857 
L 85.027712 64.018286 
L 96.222696 63.195429 
L 107.41768 64.018286 
L 118.612665 64.841143 
L 129.807649 66.486857 
L 141.002633 64.018286 
L 152.197618 64.018286 
L 163.392602 64.841143 
L 174.587586 59.904 
L 185.782571 64.841143 
L 196.977555 54.144 
L 208.172539 54.144 
L 219.367524 57.435429 
L 230.562508 58.258286 
L 241.757492 59.904 
L 252.952476 59.904 
L 264.147461 60.726857 
L 275.342445 62.372571 
L 286.537429 68.132571 
L 297.732414 63.195429 
L 308.927398 82.944 
L 320.122382 91.995429 
L 331.317367 98.578286 
L 342.512351 109.275429 
L 353.707335 111.744 
L 364.90232 121.618286 
L 376.097304 148.772571 
L 387.292288 150.418286 
L 398.487273 169.344 
L 398.487273 155.355429 
L 398.487273 155.355429 
L 387.292288 136.429714 
L 376.097304 136.429714 
L 364.90232 108.452571 
L 353.707335 96.932571 
L 342.512351 93.641143 
L 331.317367 84.589714 
L 320.122382 79.652571 
L 308.927398 73.892571 
L 297.732414 55.789714 
L 286.537429 66.486857 
L 275.342445 62.372571 
L 264.147461 60.726857 
L 252.952476 59.904 
L 241.757492 59.904 
L 230.562508 58.258286 
L 219.367524 57.435429 
L 208.172539 54.144 
L 196.977555 54.144 
L 185.782571 64.841143 
L 174.587586 59.904 
L 163.392602 64.841143 
L 152.197618 64.018286 
L 141.002633 64.018286 
L 129.807649 66.486857 
L 118.612665 64.841143 
L 107.41768 64.018286 
L 96.222696 63.195429 
L 85.027712 64.018286 
L 73.832727 66.486857 
z
" style="fill:#17becf;"/>
   </g>
   <g id="PolyCollection_41">
    <path clip-path="url(#pc79b08bf4a)" d="M 73.832727 66.486857 
L 73.832727 66.486857 
L 85.027712 64.018286 
L 96.222696 63.195429 
L 107.41768 64.018286 
L 118.612665 64.841143 
L 129.807649 66.486857 
L 141.002633 64.018286 
L 152.197618 64.018286 
L 163.392602 64.841143 
L 174.587586 59.904 
L 185.782571 64.841143 
L 196.977555 54.144 
L 208.172539 54.144 
L 219.367524 57.435429 
L 230.562508 58.258286 
L 241.757492 59.904 
L 252.952476 59.904 
L 264.147461 60.726857 
L 275.342445 62.372571 
L 286.537429 66.486857 
L 297.732414 55.789714 
L 308.927398 73.892571 
L 320.122382 79.652571 
L 331.317367 84.589714 
L 342.512351 93.641143 
L 353.707335 96.932571 
L 364.90232 108.452571 
L 376.097304 136.429714 
L 387.292288 136.429714 
L 398.487273 155.355429 
L 398.487273 143.012571 
L 398.487273 143.012571 
L 387.292288 125.732571 
L 376.097304 124.909714 
L 364.90232 92.818286 
L 353.707335 81.298286 
L 342.512351 77.184 
L 331.317367 70.601143 
L 320.122382 64.018286 
L 308.927398 64.841143 
L 297.732414 55.789714 
L 286.537429 66.486857 
L 275.342445 62.372571 
L 264.147461 60.726857 
L 252.952476 59.904 
L 241.757492 59.904 
L 230.562508 58.258286 
L 219.367524 57.435429 
L 208.172539 54.144 
L 196.977555 54.144 
L 185.782571 64.841143 
L 174.587586 59.904 
L 163.392602 64.841143 
L 152.197618 64.018286 
L 141.002633 64.018286 
L 129.807649 66.486857 
L 118.612665 64.841143 
L 107.41768 64.018286 
L 96.222696 63.195429 
L 85.027712 64.018286 
L 73.832727 66.486857 
z
" style="fill:#1f77b4;"/>
   </g>
   <g id="PolyCollection_42">
    <path clip-path="url(#pc79b08bf4a)" d="M 73.832727 66.486857 
L 73.832727 66.486857 
L 85.027712 64.018286 
L 96.222696 63.195429 
L 107.41768 64.018286 
L 118.612665 64.841143 
L 129.807649 66.486857 
L 141.002633 64.018286 
L 152.197618 64.018286 
L 163.392602 64.841143 
L 174.587586 59.904 
L 185.782571 64.841143 
L 196.977555 54.144 
L 208.172539 54.144 
L 219.367524 57.435429 
L 230.562508 58.258286 
L 241.757492 59.904 
L 252.952476 59.904 
L 264.147461 60.726857 
L 275.342445 62.372571 
L 286.537429 66.486857 
L 297.732414 55.789714 
L 308.927398 64.841143 
L 320.122382 64.018286 
L 331.317367 70.601143 
L 342.512351 77.184 
L 353.707335 81.298286 
L 364.90232 92.818286 
L 376.097304 124.909714 
L 387.292288 125.732571 
L 398.487273 143.012571 
L 398.487273 114.212571 
L 398.487273 114.212571 
L 387.292288 114.212571 
L 376.097304 110.098286 
L 364.90232 78.006857 
L 353.707335 68.955429 
L 342.512351 63.195429 
L 331.317367 61.549714 
L 320.122382 63.195429 
L 308.927398 64.841143 
L 297.732414 55.789714 
L 286.537429 66.486857 
L 275.342445 62.372571 
L 264.147461 60.726857 
L 252.952476 59.904 
L 241.757492 59.904 
L 230.562508 58.258286 
L 219.367524 57.435429 
L 208.172539 54.144 
L 196.977555 54.144 
L 185.782571 64.841143 
L 174.587586 59.904 
L 163.392602 64.841143 
L 152.197618 64.018286 
L 141.002633 64.018286 
L 129.807649 66.486857 
L 118.612665 64.841143 
L 107.41768 64.018286 
L 96.222696 63.195429 
L 85.027712 64.018286 
L 73.832727 66.486857 
z
" style="fill:#ff7f0e;"/>
   </g>
   <g id="PolyCollection_43">
    <path clip-path="url(#pc79b08bf4a)" d="M 73.832727 66.486857 
L 73.832727 66.486857 
L 85.027712 64.018286 
L 96.222696 63.195429 
L 107.41768 64.018286 
L 118.612665 64.841143 
L 129.807649 66.486857 
L 141.002633 64.018286 
L 152.197618 64.018286 
L 163.392602 64.841143 
L 174.587586 59.904 
L 185.782571 64.841143 
L 196.977555 54.144 
L 208.172539 54.144 
L 219.367524 57.435429 
L 230.562508 58.258286 
L 241.757492 59.904 
L 252.952476 59.904 
L 264.147461 60.726857 
L 275.342445 62.372571 
L 286.537429 66.486857 
L 297.732414 55.789714 
L 308.927398 64.841143 
L 320.122382 63.195429 
L 331.317367 61.549714 
L 342.512351 63.195429 
L 353.707335 68.955429 
L 364.90232 78.006857 
L 376.097304 110.098286 
L 387.292288 114.212571 
L 398.487273 114.212571 
L 398.487273 96.932571 
L 398.487273 96.932571 
L 387.292288 97.755429 
L 376.097304 94.464 
L 364.90232 65.664 
L 353.707335 63.195429 
L 342.512351 63.195429 
L 331.317367 61.549714 
L 320.122382 63.195429 
L 308.927398 64.841143 
L 297.732414 55.789714 
L 286.537429 66.486857 
L 275.342445 62.372571 
L 264.147461 60.726857 
L 252.952476 59.904 
L 241.757492 59.904 
L 230.562508 58.258286 
L 219.367524 57.435429 
L 208.172539 54.144 
L 196.977555 54.144 
L 185.782571 64.841143 
L 174.587586 59.904 
L 163.392602 64.841143 
L 152.197618 64.018286 
L 141.002633 64.018286 
L 129.807649 66.486857 
L 118.612665 64.841143 
L 107.41768 64.018286 
L 96.222696 63.195429 
L 85.027712 64.018286 
L 73.832727 66.486857 
z
" style="fill:#2ca02c;"/>
   </g>
   <g id="PolyCollection_44">
    <path clip-path="url(#pc79b08bf4a)" d="M 73.832727 66.486857 
L 73.832727 66.486857 
L 85.027712 64.018286 
L 96.222696 63.195429 
L 107.41768 64.018286 
L 118.612665 64.841143 
L 129.807649 66.486857 
L 141.002633 64.018286 
L 152.197618 64.018286 
L 163.392602 64.841143 
L 174.587586 59.904 
L 185.782571 64.841143 
L 196.977555 54.144 
L 208.172539 54.144 
L 219.367524 57.435429 
L 230.562508 58.258286 
L 241.757492 59.904 
L 252.952476 59.904 
L 264.147461 60.726857 
L 275.342445 62.372571 
L 286.537429 66.486857 
L 297.732414 55.789714 
L 308.927398 64.841143 
L 320.122382 63.195429 
L 331.317367 61.549714 
L 342.512351 63.195429 
L 353.707335 63.195429 
L 364.90232 65.664 
L 376.097304 94.464 
L 387.292288 97.755429 
L 398.487273 96.932571 
L 398.487273 87.058286 
L 398.487273 87.058286 
L 387.292288 87.881143 
L 376.097304 84.589714 
L 364.90232 62.372571 
L 353.707335 63.195429 
L 342.512351 63.195429 
L 331.317367 61.549714 
L 320.122382 63.195429 
L 308.927398 64.841143 
L 297.732414 55.789714 
L 286.537429 66.486857 
L 275.342445 62.372571 
L 264.147461 60.726857 
L 252.952476 59.904 
L 241.757492 59.904 
L 230.562508 58.258286 
L 219.367524 57.435429 
L 208.172539 54.144 
L 196.977555 54.144 
L 185.782571 64.841143 
L 174.587586 59.904 
L 163.392602 64.841143 
L 152.197618 64.018286 
L 141.002633 64.018286 
L 129.807649 66.486857 
L 118.612665 64.841143 
L 107.41768 64.018286 
L 96.222696 63.195429 
L 85.027712 64.018286 
L 73.832727 66.486857 
z
" style="fill:#d62728;"/>
   </g>
   <g id="PolyCollection_45">
    <path clip-path="url(#pc79b08bf4a)" d="M 73.832727 66.486857 
L 73.832727 66.486857 
L 85.027712 64.018286 
L 96.222696 63.195429 
L 107.41768 64.018286 
L 118.612665 64.841143 
L 129.807649 66.486857 
L 141.002633 64.018286 
L 152.197618 64.018286 
L 163.392602 64.841143 
L 174.587586 59.904 
L 185.782571 64.841143 
L 196.977555 54.144 
L 208.172539 54.144 
L 219.367524 57.435429 
L 230.562508 58.258286 
L 241.757492 59.904 
L 252.952476 59.904 
L 264.147461 60.726857 
L 275.342445 62.372571 
L 286.537429 66.486857 
L 297.732414 55.789714 
L 308.927398 64.841143 
L 320.122382 63.195429 
L 331.317367 61.549714 
L 342.512351 63.195429 
L 353.707335 63.195429 
L 364.90232 62.372571 
L 376.097304 84.589714 
L 387.292288 87.881143 
L 398.487273 87.058286 
L 398.487273 74.715429 
L 398.487273 74.715429 
L 387.292288 76.361143 
L 376.097304 74.715429 
L 364.90232 57.435429 
L 353.707335 63.195429 
L 342.512351 63.195429 
L 331.317367 61.549714 
L 320.122382 63.195429 
L 308.927398 64.841143 
L 297.732414 55.789714 
L 286.537429 66.486857 
L 275.342445 62.372571 
L 264.147461 60.726857 
L 252.952476 59.904 
L 241.757492 59.904 
L 230.562508 58.258286 
L 219.367524 57.435429 
L 208.172539 54.144 
L 196.977555 54.144 
L 185.782571 64.841143 
L 174.587586 59.904 
L 163.392602 64.841143 
L 152.197618 64.018286 
L 141.002633 64.018286 
L 129.807649 66.486857 
L 118.612665 64.841143 
L 107.41768 64.018286 
L 96.222696 63.195429 
L 85.027712 64.018286 
L 73.832727 66.486857 
z
" style="fill:#9467bd;"/>
   </g>
   <g id="PolyCollection_46">
    <path clip-path="url(#pc79b08bf4a)" d="M 73.832727 66.486857 
L 73.832727 66.486857 
L 85.027712 64.018286 
L 96.222696 63.195429 
L 107.41768 64.018286 
L 118.612665 64.841143 
L 129.807649 66.486857 
L 141.002633 64.018286 
L 152.197618 64.018286 
L 163.392602 64.841143 
L 174.587586 59.904 
L 185.782571 64.841143 
L 196.977555 54.144 
L 208.172539 54.144 
L 219.367524 57.435429 
L 230.562508 58.258286 
L 241.757492 59.904 
L 252.952476 59.904 
L 264.147461 60.726857 
L 275.342445 62.372571 
L 286.537429 66.486857 
L 297.732414 55.789714 
L 308.927398 64.841143 
L 320.122382 63.195429 
L 331.317367 61.549714 
L 342.512351 63.195429 
L 353.707335 63.195429 
L 364.90232 57.435429 
L 376.097304 74.715429 
L 387.292288 76.361143 
L 398.487273 74.715429 
L 398.487273 63.195429 
L 398.487273 63.195429 
L 387.292288 64.841143 
L 376.097304 64.841143 
L 364.90232 57.435429 
L 353.707335 63.195429 
L 342.512351 63.195429 
L 331.317367 61.549714 
L 320.122382 63.195429 
L 308.927398 64.841143 
L 297.732414 55.789714 
L 286.537429 66.486857 
L 275.342445 62.372571 
L 264.147461 60.726857 
L 252.952476 59.904 
L 241.757492 59.904 
L 230.562508 58.258286 
L 219.367524 57.435429 
L 208.172539 54.144 
L 196.977555 54.144 
L 185.782571 64.841143 
L 174.587586 59.904 
L 163.392602 64.841143 
L 152.197618 64.018286 
L 141.002633 64.018286 
L 129.807649 66.486857 
L 118.612665 64.841143 
L 107.41768 64.018286 
L 96.222696 63.195429 
L 85.027712 64.018286 
L 73.832727 66.486857 
z
" style="fill:#8c564b;"/>
   </g>
   <g id="matplotlib.axis_1">
    <g id="xtick_1">
     <g id="line2d_1">
      <defs>
       <path d="M 0 0 
L 0 3.5 
" id="m7bcbfcdcbf" style="stroke:#000000;stroke-width:0.8;"/>
      </defs>
      <g>
       <use style="stroke:#000000;stroke-width:0.8;" x="73.832727" xlink:href="#m7bcbfcdcbf" y="307.584"/>
      </g>
     </g>
     <g id="text_1">
      <!-- 0 -->
      <defs>
       <path d="M 31.78125 66.40625 
Q 24.171875 66.40625 20.328125 58.90625 
Q 16.5 51.421875 16.5 36.375 
Q 16.5 21.390625 20.328125 13.890625 
Q 24.171875 6.390625 31.78125 6.390625 
Q 39.453125 6.390625 43.28125 13.890625 
Q 47.125 21.390625 47.125 36.375 
Q 47.125 51.421875 43.28125 58.90625 
Q 39.453125 66.40625 31.78125 66.40625 
z
M 31.78125 74.21875 
Q 44.046875 74.21875 50.515625 64.515625 
Q 56.984375 54.828125 56.984375 36.375 
Q 56.984375 17.96875 50.515625 8.265625 
Q 44.046875 -1.421875 31.78125 -1.421875 
Q 19.53125 -1.421875 13.0625 8.265625 
Q 6.59375 17.96875 6.59375 36.375 
Q 6.59375 54.828125 13.0625 64.515625 
Q 19.53125 74.21875 31.78125 74.21875 
z
" id="DejaVuSans-30"/>
      </defs>
      <g transform="translate(70.651477 322.182437)scale(0.1 -0.1)">
       <use xlink:href="#DejaVuSans-30"/>
      </g>
     </g>
    </g>
    <g id="xtick_2">
     <g id="line2d_2">
      <g>
       <use style="stroke:#000000;stroke-width:0.8;" x="129.807649" xlink:href="#m7bcbfcdcbf" y="307.584"/>
      </g>
     </g>
     <g id="text_2">
      <!-- 5 -->
      <defs>
       <path d="M 10.796875 72.90625 
L 49.515625 72.90625 
L 49.515625 64.59375 
L 19.828125 64.59375 
L 19.828125 46.734375 
Q 21.96875 47.46875 24.109375 47.828125 
Q 26.265625 48.1875 28.421875 48.1875 
Q 40.625 48.1875 47.75 41.5 
Q 54.890625 34.8125 54.890625 23.390625 
Q 54.890625 11.625 47.5625 5.09375 
Q 40.234375 -1.421875 26.90625 -1.421875 
Q 22.3125 -1.421875 17.546875 -0.640625 
Q 12.796875 0.140625 7.71875 1.703125 
L 7.71875 11.625 
Q 12.109375 9.234375 16.796875 8.0625 
Q 21.484375 6.890625 26.703125 6.890625 
Q 35.15625 6.890625 40.078125 11.328125 
Q 45.015625 15.765625 45.015625 23.390625 
Q 45.015625 31 40.078125 35.4375 
Q 35.15625 39.890625 26.703125 39.890625 
Q 22.75 39.890625 18.8125 39.015625 
Q 14.890625 38.140625 10.796875 36.28125 
z
" id="DejaVuSans-35"/>
      </defs>
      <g transform="translate(126.626399 322.182437)scale(0.1 -0.1)">
       <use xlink:href="#DejaVuSans-35"/>
      </g>
     </g>
    </g>
    <g id="xtick_3">
     <g id="line2d_3">
      <g>
       <use style="stroke:#000000;stroke-width:0.8;" x="185.782571" xlink:href="#m7bcbfcdcbf" y="307.584"/>
      </g>
     </g>
     <g id="text_3">
      <!-- 10 -->
      <defs>
       <path d="M 12.40625 8.296875 
L 28.515625 8.296875 
L 28.515625 63.921875 
L 10.984375 60.40625 
L 10.984375 69.390625 
L 28.421875 72.90625 
L 38.28125 72.90625 
L 38.28125 8.296875 
L 54.390625 8.296875 
L 54.390625 0 
L 12.40625 0 
z
" id="DejaVuSans-31"/>
      </defs>
      <g transform="translate(179.420071 322.182437)scale(0.1 -0.1)">
       <use xlink:href="#DejaVuSans-31"/>
       <use x="63.623047" xlink:href="#DejaVuSans-30"/>
      </g>
     </g>
    </g>
    <g id="xtick_4">
     <g id="line2d_4">
      <g>
       <use style="stroke:#000000;stroke-width:0.8;" x="241.757492" xlink:href="#m7bcbfcdcbf" y="307.584"/>
      </g>
     </g>
     <g id="text_4">
      <!-- 15 -->
      <g transform="translate(235.394992 322.182437)scale(0.1 -0.1)">
       <use xlink:href="#DejaVuSans-31"/>
       <use x="63.623047" xlink:href="#DejaVuSans-35"/>
      </g>
     </g>
    </g>
    <g id="xtick_5">
     <g id="line2d_5">
      <g>
       <use style="stroke:#000000;stroke-width:0.8;" x="297.732414" xlink:href="#m7bcbfcdcbf" y="307.584"/>
      </g>
     </g>
     <g id="text_5">
      <!-- 20 -->
      <defs>
       <path d="M 19.1875 8.296875 
L 53.609375 8.296875 
L 53.609375 0 
L 7.328125 0 
L 7.328125 8.296875 
Q 12.9375 14.109375 22.625 23.890625 
Q 32.328125 33.6875 34.8125 36.53125 
Q 39.546875 41.84375 41.421875 45.53125 
Q 43.3125 49.21875 43.3125 52.78125 
Q 43.3125 58.59375 39.234375 62.25 
Q 35.15625 65.921875 28.609375 65.921875 
Q 23.96875 65.921875 18.8125 64.3125 
Q 13.671875 62.703125 7.8125 59.421875 
L 7.8125 69.390625 
Q 13.765625 71.78125 18.9375 73 
Q 24.125 74.21875 28.421875 74.21875 
Q 39.75 74.21875 46.484375 68.546875 
Q 53.21875 62.890625 53.21875 53.421875 
Q 53.21875 48.921875 51.53125 44.890625 
Q 49.859375 40.875 45.40625 35.40625 
Q 44.1875 33.984375 37.640625 27.21875 
Q 31.109375 20.453125 19.1875 8.296875 
z
" id="DejaVuSans-32"/>
      </defs>
      <g transform="translate(291.369914 322.182437)scale(0.1 -0.1)">
       <use xlink:href="#DejaVuSans-32"/>
       <use x="63.623047" xlink:href="#DejaVuSans-30"/>
      </g>
     </g>
    </g>
    <g id="xtick_6">
     <g id="line2d_6">
      <g>
       <use style="stroke:#000000;stroke-width:0.8;" x="353.707335" xlink:href="#m7bcbfcdcbf" y="307.584"/>
      </g>
     </g>
     <g id="text_6">
      <!-- 25 -->
      <g transform="translate(347.344835 322.182437)scale(0.1 -0.1)">
       <use xlink:href="#DejaVuSans-32"/>
       <use x="63.623047" xlink:href="#DejaVuSans-35"/>
      </g>
     </g>
    </g>
    <g id="xtick_7">
     <g id="line2d_7">
      <g>
       <use style="stroke:#000000;stroke-width:0.8;" x="409.682257" xlink:href="#m7bcbfcdcbf" y="307.584"/>
      </g>
     </g>
     <g id="text_7">
      <!-- 30 -->
      <defs>
       <path d="M 40.578125 39.3125 
Q 47.65625 37.796875 51.625 33 
Q 55.609375 28.21875 55.609375 21.1875 
Q 55.609375 10.40625 48.1875 4.484375 
Q 40.765625 -1.421875 27.09375 -1.421875 
Q 22.515625 -1.421875 17.65625 -0.515625 
Q 12.796875 0.390625 7.625 2.203125 
L 7.625 11.71875 
Q 11.71875 9.328125 16.59375 8.109375 
Q 21.484375 6.890625 26.8125 6.890625 
Q 36.078125 6.890625 40.9375 10.546875 
Q 45.796875 14.203125 45.796875 21.1875 
Q 45.796875 27.640625 41.28125 31.265625 
Q 36.765625 34.90625 28.71875 34.90625 
L 20.21875 34.90625 
L 20.21875 43.015625 
L 29.109375 43.015625 
Q 36.375 43.015625 40.234375 45.921875 
Q 44.09375 48.828125 44.09375 54.296875 
Q 44.09375 59.90625 40.109375 62.90625 
Q 36.140625 65.921875 28.71875 65.921875 
Q 24.65625 65.921875 20.015625 65.03125 
Q 15.375 64.15625 9.8125 62.3125 
L 9.8125 71.09375 
Q 15.4375 72.65625 20.34375 73.4375 
Q 25.25 74.21875 29.59375 74.21875 
Q 40.828125 74.21875 47.359375 69.109375 
Q 53.90625 64.015625 53.90625 55.328125 
Q 53.90625 49.265625 50.4375 45.09375 
Q 46.96875 40.921875 40.578125 39.3125 
z
" id="DejaVuSans-33"/>
      </defs>
      <g transform="translate(403.319757 322.182437)scale(0.1 -0.1)">
       <use xlink:href="#DejaVuSans-33"/>
       <use x="63.623047" xlink:href="#DejaVuSans-30"/>
      </g>
     </g>
    </g>
    <g id="text_8">
     <!-- Generations -->
     <defs>
      <path d="M 59.515625 10.40625 
L 59.515625 29.984375 
L 43.40625 29.984375 
L 43.40625 38.09375 
L 69.28125 38.09375 
L 69.28125 6.78125 
Q 63.578125 2.734375 56.6875 0.65625 
Q 49.8125 -1.421875 42 -1.421875 
Q 24.90625 -1.421875 15.25 8.5625 
Q 5.609375 18.5625 5.609375 36.375 
Q 5.609375 54.25 15.25 64.234375 
Q 24.90625 74.21875 42 74.21875 
Q 49.125 74.21875 55.546875 72.453125 
Q 61.96875 70.703125 67.390625 67.28125 
L 67.390625 56.78125 
Q 61.921875 61.421875 55.765625 63.765625 
Q 49.609375 66.109375 42.828125 66.109375 
Q 29.4375 66.109375 22.71875 58.640625 
Q 16.015625 51.171875 16.015625 36.375 
Q 16.015625 21.625 22.71875 14.15625 
Q 29.4375 6.6875 42.828125 6.6875 
Q 48.046875 6.6875 52.140625 7.59375 
Q 56.25 8.5 59.515625 10.40625 
z
" id="DejaVuSans-47"/>
      <path d="M 56.203125 29.59375 
L 56.203125 25.203125 
L 14.890625 25.203125 
Q 15.484375 15.921875 20.484375 11.0625 
Q 25.484375 6.203125 34.421875 6.203125 
Q 39.59375 6.203125 44.453125 7.46875 
Q 49.3125 8.734375 54.109375 11.28125 
L 54.109375 2.78125 
Q 49.265625 0.734375 44.1875 -0.34375 
Q 39.109375 -1.421875 33.890625 -1.421875 
Q 20.796875 -1.421875 13.15625 6.1875 
Q 5.515625 13.8125 5.515625 26.8125 
Q 5.515625 40.234375 12.765625 48.109375 
Q 20.015625 56 32.328125 56 
Q 43.359375 56 49.78125 48.890625 
Q 56.203125 41.796875 56.203125 29.59375 
z
M 47.21875 32.234375 
Q 47.125 39.59375 43.09375 43.984375 
Q 39.0625 48.390625 32.421875 48.390625 
Q 24.90625 48.390625 20.390625 44.140625 
Q 15.875 39.890625 15.1875 32.171875 
z
" id="DejaVuSans-65"/>
      <path d="M 54.890625 33.015625 
L 54.890625 0 
L 45.90625 0 
L 45.90625 32.71875 
Q 45.90625 40.484375 42.875 44.328125 
Q 39.84375 48.1875 33.796875 48.1875 
Q 26.515625 48.1875 22.3125 43.546875 
Q 18.109375 38.921875 18.109375 30.90625 
L 18.109375 0 
L 9.078125 0 
L 9.078125 54.6875 
L 18.109375 54.6875 
L 18.109375 46.1875 
Q 21.34375 51.125 25.703125 53.5625 
Q 30.078125 56 35.796875 56 
Q 45.21875 56 50.046875 50.171875 
Q 54.890625 44.34375 54.890625 33.015625 
z
" id="DejaVuSans-6e"/>
      <path d="M 41.109375 46.296875 
Q 39.59375 47.171875 37.8125 47.578125 
Q 36.03125 48 33.890625 48 
Q 26.265625 48 22.1875 43.046875 
Q 18.109375 38.09375 18.109375 28.8125 
L 18.109375 0 
L 9.078125 0 
L 9.078125 54.6875 
L 18.109375 54.6875 
L 18.109375 46.1875 
Q 20.953125 51.171875 25.484375 53.578125 
Q 30.03125 56 36.53125 56 
Q 37.453125 56 38.578125 55.875 
Q 39.703125 55.765625 41.0625 55.515625 
z
" id="DejaVuSans-72"/>
      <path d="M 34.28125 27.484375 
Q 23.390625 27.484375 19.1875 25 
Q 14.984375 22.515625 14.984375 16.5 
Q 14.984375 11.71875 18.140625 8.90625 
Q 21.296875 6.109375 26.703125 6.109375 
Q 34.1875 6.109375 38.703125 11.40625 
Q 43.21875 16.703125 43.21875 25.484375 
L 43.21875 27.484375 
z
M 52.203125 31.203125 
L 52.203125 0 
L 43.21875 0 
L 43.21875 8.296875 
Q 40.140625 3.328125 35.546875 0.953125 
Q 30.953125 -1.421875 24.3125 -1.421875 
Q 15.921875 -1.421875 10.953125 3.296875 
Q 6 8.015625 6 15.921875 
Q 6 25.140625 12.171875 29.828125 
Q 18.359375 34.515625 30.609375 34.515625 
L 43.21875 34.515625 
L 43.21875 35.40625 
Q 43.21875 41.609375 39.140625 45 
Q 35.0625 48.390625 27.6875 48.390625 
Q 23 48.390625 18.546875 47.265625 
Q 14.109375 46.140625 10.015625 43.890625 
L 10.015625 52.203125 
Q 14.9375 54.109375 19.578125 55.046875 
Q 24.21875 56 28.609375 56 
Q 40.484375 56 46.34375 49.84375 
Q 52.203125 43.703125 52.203125 31.203125 
z
" id="DejaVuSans-61"/>
      <path d="M 18.3125 70.21875 
L 18.3125 54.6875 
L 36.8125 54.6875 
L 36.8125 47.703125 
L 18.3125 47.703125 
L 18.3125 18.015625 
Q 18.3125 11.328125 20.140625 9.421875 
Q 21.96875 7.515625 27.59375 7.515625 
L 36.8125 7.515625 
L 36.8125 0 
L 27.59375 0 
Q 17.1875 0 13.234375 3.875 
Q 9.28125 7.765625 9.28125 18.015625 
L 9.28125 47.703125 
L 2.6875 47.703125 
L 2.6875 54.6875 
L 9.28125 54.6875 
L 9.28125 70.21875 
z
" id="DejaVuSans-74"/>
      <path d="M 9.421875 54.6875 
L 18.40625 54.6875 
L 18.40625 0 
L 9.421875 0 
z
M 9.421875 75.984375 
L 18.40625 75.984375 
L 18.40625 64.59375 
L 9.421875 64.59375 
z
" id="DejaVuSans-69"/>
      <path d="M 30.609375 48.390625 
Q 23.390625 48.390625 19.1875 42.75 
Q 14.984375 37.109375 14.984375 27.296875 
Q 14.984375 17.484375 19.15625 11.84375 
Q 23.34375 6.203125 30.609375 6.203125 
Q 37.796875 6.203125 41.984375 11.859375 
Q 46.1875 17.53125 46.1875 27.296875 
Q 46.1875 37.015625 41.984375 42.703125 
Q 37.796875 48.390625 30.609375 48.390625 
z
M 30.609375 56 
Q 42.328125 56 49.015625 48.375 
Q 55.71875 40.765625 55.71875 27.296875 
Q 55.71875 13.875 49.015625 6.21875 
Q 42.328125 -1.421875 30.609375 -1.421875 
Q 18.84375 -1.421875 12.171875 6.21875 
Q 5.515625 13.875 5.515625 27.296875 
Q 5.515625 40.765625 12.171875 48.375 
Q 18.84375 56 30.609375 56 
z
" id="DejaVuSans-6f"/>
      <path d="M 44.28125 53.078125 
L 44.28125 44.578125 
Q 40.484375 46.53125 36.375 47.5 
Q 32.28125 48.484375 27.875 48.484375 
Q 21.1875 48.484375 17.84375 46.4375 
Q 14.5 44.390625 14.5 40.28125 
Q 14.5 37.15625 16.890625 35.375 
Q 19.28125 33.59375 26.515625 31.984375 
L 29.59375 31.296875 
Q 39.15625 29.25 43.1875 25.515625 
Q 47.21875 21.78125 47.21875 15.09375 
Q 47.21875 7.46875 41.1875 3.015625 
Q 35.15625 -1.421875 24.609375 -1.421875 
Q 20.21875 -1.421875 15.453125 -0.5625 
Q 10.6875 0.296875 5.421875 2 
L 5.421875 11.28125 
Q 10.40625 8.6875 15.234375 7.390625 
Q 20.0625 6.109375 24.8125 6.109375 
Q 31.15625 6.109375 34.5625 8.28125 
Q 37.984375 10.453125 37.984375 14.40625 
Q 37.984375 18.0625 35.515625 20.015625 
Q 33.0625 21.96875 24.703125 23.78125 
L 21.578125 24.515625 
Q 13.234375 26.265625 9.515625 29.90625 
Q 5.8125 33.546875 5.8125 39.890625 
Q 5.8125 47.609375 11.28125 51.796875 
Q 16.75 56 26.8125 56 
Q 31.78125 56 36.171875 55.265625 
Q 40.578125 54.546875 44.28125 53.078125 
z
" id="DejaVuSans-73"/>
     </defs>
     <g transform="translate(205.662344 335.860562)scale(0.1 -0.1)">
      <use xlink:href="#DejaVuSans-47"/>
      <use x="77.490234" xlink:href="#DejaVuSans-65"/>
      <use x="139.013672" xlink:href="#DejaVuSans-6e"/>
      <use x="202.392578" xlink:href="#DejaVuSans-65"/>
      <use x="263.916016" xlink:href="#DejaVuSans-72"/>
      <use x="305.029297" xlink:href="#DejaVuSans-61"/>
      <use x="366.308594" xlink:href="#DejaVuSans-74"/>
      <use x="405.517578" xlink:href="#DejaVuSans-69"/>
      <use x="433.300781" xlink:href="#DejaVuSans-6f"/>
      <use x="494.482422" xlink:href="#DejaVuSans-6e"/>
      <use x="557.861328" xlink:href="#DejaVuSans-73"/>
     </g>
    </g>
   </g>
   <g id="matplotlib.axis_2">
    <g id="ytick_1">
     <g id="line2d_8">
      <defs>
       <path d="M 0 0 
L -3.5 0 
" id="m950f9fbc58" style="stroke:#000000;stroke-width:0.8;"/>
      </defs>
      <g>
       <use style="stroke:#000000;stroke-width:0.8;" x="57.6" xlink:href="#m950f9fbc58" y="307.584"/>
      </g>
     </g>
     <g id="text_9">
      <!-- 0 -->
      <g transform="translate(44.2375 311.383219)scale(0.1 -0.1)">
       <use xlink:href="#DejaVuSans-30"/>
      </g>
     </g>
    </g>
    <g id="ytick_2">
     <g id="line2d_9">
      <g>
       <use style="stroke:#000000;stroke-width:0.8;" x="57.6" xlink:href="#m950f9fbc58" y="266.441143"/>
      </g>
     </g>
     <g id="text_10">
      <!-- 50 -->
      <g transform="translate(37.875 270.240362)scale(0.1 -0.1)">
       <use xlink:href="#DejaVuSans-35"/>
       <use x="63.623047" xlink:href="#DejaVuSans-30"/>
      </g>
     </g>
    </g>
    <g id="ytick_3">
     <g id="line2d_10">
      <g>
       <use style="stroke:#000000;stroke-width:0.8;" x="57.6" xlink:href="#m950f9fbc58" y="225.298286"/>
      </g>
     </g>
     <g id="text_11">
      <!-- 100 -->
      <g transform="translate(31.5125 229.097504)scale(0.1 -0.1)">
       <use xlink:href="#DejaVuSans-31"/>
       <use x="63.623047" xlink:href="#DejaVuSans-30"/>
       <use x="127.246094" xlink:href="#DejaVuSans-30"/>
      </g>
     </g>
    </g>
    <g id="ytick_4">
     <g id="line2d_11">
      <g>
       <use style="stroke:#000000;stroke-width:0.8;" x="57.6" xlink:href="#m950f9fbc58" y="184.155429"/>
      </g>
     </g>
     <g id="text_12">
      <!-- 150 -->
      <g transform="translate(31.5125 187.954647)scale(0.1 -0.1)">
       <use xlink:href="#DejaVuSans-31"/>
       <use x="63.623047" xlink:href="#DejaVuSans-35"/>
       <use x="127.246094" xlink:href="#DejaVuSans-30"/>
      </g>
     </g>
    </g>
    <g id="ytick_5">
     <g id="line2d_12">
      <g>
       <use style="stroke:#000000;stroke-width:0.8;" x="57.6" xlink:href="#m950f9fbc58" y="143.012571"/>
      </g>
     </g>
     <g id="text_13">
      <!-- 200 -->
      <g transform="translate(31.5125 146.81179)scale(0.1 -0.1)">
       <use xlink:href="#DejaVuSans-32"/>
       <use x="63.623047" xlink:href="#DejaVuSans-30"/>
       <use x="127.246094" xlink:href="#DejaVuSans-30"/>
      </g>
     </g>
    </g>
    <g id="ytick_6">
     <g id="line2d_13">
      <g>
       <use style="stroke:#000000;stroke-width:0.8;" x="57.6" xlink:href="#m950f9fbc58" y="101.869714"/>
      </g>
     </g>
     <g id="text_14">
      <!-- 250 -->
      <g transform="translate(31.5125 105.668933)scale(0.1 -0.1)">
       <use xlink:href="#DejaVuSans-32"/>
       <use x="63.623047" xlink:href="#DejaVuSans-35"/>
       <use x="127.246094" xlink:href="#DejaVuSans-30"/>
      </g>
     </g>
    </g>
    <g id="ytick_7">
     <g id="line2d_14">
      <g>
       <use style="stroke:#000000;stroke-width:0.8;" x="57.6" xlink:href="#m950f9fbc58" y="60.726857"/>
      </g>
     </g>
     <g id="text_15">
      <!-- 300 -->
      <g transform="translate(31.5125 64.526076)scale(0.1 -0.1)">
       <use xlink:href="#DejaVuSans-33"/>
       <use x="63.623047" xlink:href="#DejaVuSans-30"/>
       <use x="127.246094" xlink:href="#DejaVuSans-30"/>
      </g>
     </g>
    </g>
    <g id="text_16">
     <!-- Size per Species -->
     <defs>
      <path d="M 53.515625 70.515625 
L 53.515625 60.890625 
Q 47.90625 63.578125 42.921875 64.890625 
Q 37.9375 66.21875 33.296875 66.21875 
Q 25.25 66.21875 20.875 63.09375 
Q 16.5 59.96875 16.5 54.203125 
Q 16.5 49.359375 19.40625 46.890625 
Q 22.3125 44.4375 30.421875 42.921875 
L 36.375 41.703125 
Q 47.40625 39.59375 52.65625 34.296875 
Q 57.90625 29 57.90625 20.125 
Q 57.90625 9.515625 50.796875 4.046875 
Q 43.703125 -1.421875 29.984375 -1.421875 
Q 24.8125 -1.421875 18.96875 -0.25 
Q 13.140625 0.921875 6.890625 3.21875 
L 6.890625 13.375 
Q 12.890625 10.015625 18.65625 8.296875 
Q 24.421875 6.59375 29.984375 6.59375 
Q 38.421875 6.59375 43.015625 9.90625 
Q 47.609375 13.234375 47.609375 19.390625 
Q 47.609375 24.75 44.3125 27.78125 
Q 41.015625 30.8125 33.5 32.328125 
L 27.484375 33.5 
Q 16.453125 35.6875 11.515625 40.375 
Q 6.59375 45.0625 6.59375 53.421875 
Q 6.59375 63.09375 13.40625 68.65625 
Q 20.21875 74.21875 32.171875 74.21875 
Q 37.3125 74.21875 42.625 73.28125 
Q 47.953125 72.359375 53.515625 70.515625 
z
" id="DejaVuSans-53"/>
      <path d="M 5.515625 54.6875 
L 48.1875 54.6875 
L 48.1875 46.484375 
L 14.40625 7.171875 
L 48.1875 7.171875 
L 48.1875 0 
L 4.296875 0 
L 4.296875 8.203125 
L 38.09375 47.515625 
L 5.515625 47.515625 
z
" id="DejaVuSans-7a"/>
      <path id="DejaVuSans-20"/>
      <path d="M 18.109375 8.203125 
L 18.109375 -20.796875 
L 9.078125 -20.796875 
L 9.078125 54.6875 
L 18.109375 54.6875 
L 18.109375 46.390625 
Q 20.953125 51.265625 25.265625 53.625 
Q 29.59375 56 35.59375 56 
Q 45.5625 56 51.78125 48.09375 
Q 58.015625 40.1875 58.015625 27.296875 
Q 58.015625 14.40625 51.78125 6.484375 
Q 45.5625 -1.421875 35.59375 -1.421875 
Q 29.59375 -1.421875 25.265625 0.953125 
Q 20.953125 3.328125 18.109375 8.203125 
z
M 48.6875 27.296875 
Q 48.6875 37.203125 44.609375 42.84375 
Q 40.53125 48.484375 33.40625 48.484375 
Q 26.265625 48.484375 22.1875 42.84375 
Q 18.109375 37.203125 18.109375 27.296875 
Q 18.109375 17.390625 22.1875 11.75 
Q 26.265625 6.109375 33.40625 6.109375 
Q 40.53125 6.109375 44.609375 11.75 
Q 48.6875 17.390625 48.6875 27.296875 
z
" id="DejaVuSans-70"/>
      <path d="M 48.78125 52.59375 
L 48.78125 44.1875 
Q 44.96875 46.296875 41.140625 47.34375 
Q 37.3125 48.390625 33.40625 48.390625 
Q 24.65625 48.390625 19.8125 42.84375 
Q 14.984375 37.3125 14.984375 27.296875 
Q 14.984375 17.28125 19.8125 11.734375 
Q 24.65625 6.203125 33.40625 6.203125 
Q 37.3125 6.203125 41.140625 7.25 
Q 44.96875 8.296875 48.78125 10.40625 
L 48.78125 2.09375 
Q 45.015625 0.34375 40.984375 -0.53125 
Q 36.96875 -1.421875 32.421875 -1.421875 
Q 20.0625 -1.421875 12.78125 6.34375 
Q 5.515625 14.109375 5.515625 27.296875 
Q 5.515625 40.671875 12.859375 48.328125 
Q 20.21875 56 33.015625 56 
Q 37.15625 56 41.109375 55.140625 
Q 45.0625 54.296875 48.78125 52.59375 
z
" id="DejaVuSans-63"/>
     </defs>
     <g transform="translate(25.432812 215.520969)rotate(-90)scale(0.1 -0.1)">
      <use xlink:href="#DejaVuSans-53"/>
      <use x="63.476562" xlink:href="#DejaVuSans-69"/>
      <use x="91.259766" xlink:href="#DejaVuSans-7a"/>
      <use x="143.75" xlink:href="#DejaVuSans-65"/>
      <use x="205.273438" xlink:href="#DejaVuSans-20"/>
      <use x="237.060547" xlink:href="#DejaVuSans-70"/>
      <use x="300.537109" xlink:href="#DejaVuSans-65"/>
      <use x="362.060547" xlink:href="#DejaVuSans-72"/>
      <use x="403.173828" xlink:href="#DejaVuSans-20"/>
      <use x="434.960938" xlink:href="#DejaVuSans-53"/>
      <use x="498.4375" xlink:href="#DejaVuSans-70"/>
      <use x="561.914062" xlink:href="#DejaVuSans-65"/>
      <use x="623.4375" xlink:href="#DejaVuSans-63"/>
      <use x="678.417969" xlink:href="#DejaVuSans-69"/>
      <use x="706.201172" xlink:href="#DejaVuSans-65"/>
      <use x="767.724609" xlink:href="#DejaVuSans-73"/>
     </g>
    </g>
   </g>
   <g id="patch_3">
    <path d="M 57.6 307.584 
L 57.6 41.472 
" style="fill:none;stroke:#000000;stroke-linecap:square;stroke-linejoin:miter;stroke-width:0.8;"/>
   </g>
   <g id="patch_4">
    <path d="M 414.72 307.584 
L 414.72 41.472 
" style="fill:none;stroke:#000000;stroke-linecap:square;stroke-linejoin:miter;stroke-width:0.8;"/>
   </g>
   <g id="patch_5">
    <path d="M 57.6 307.584 
L 414.72 307.584 
" style="fill:none;stroke:#000000;stroke-linecap:square;stroke-linejoin:miter;stroke-width:0.8;"/>
   </g>
   <g id="patch_6">
    <path d="M 57.6 41.472 
L 414.72 41.472 
" style="fill:none;stroke:#000000;stroke-linecap:square;stroke-linejoin:miter;stroke-width:0.8;"/>
   </g>
   <g id="text_17">
    <!-- Speciation -->
    <g transform="translate(204.714375 35.472)scale(0.12 -0.12)">
     <use xlink:href="#DejaVuSans-53"/>
     <use x="63.476562" xlink:href="#DejaVuSans-70"/>
     <use x="126.953125" xlink:href="#DejaVuSans-65"/>
     <use x="188.476562" xlink:href="#DejaVuSans-63"/>
     <use x="243.457031" xlink:href="#DejaVuSans-69"/>
     <use x="271.240234" xlink:href="#DejaVuSans-61"/>
     <use x="332.519531" xlink:href="#DejaVuSans-74"/>
     <use x="371.728516" xlink:href="#DejaVuSans-69"/>
     <use x="399.511719" xlink:href="#DejaVuSans-6f"/>
     <use x="460.693359" xlink:href="#DejaVuSans-6e"/>
    </g>
   </g>
  </g>
 </g>
 <defs>
  <clipPath id="pc79b08bf4a">
   <rect height="266.112" width="357.12" x="57.6" y="41.472"/>
  </clipPath>
 </defs>
</svg>
