<?xml version="1.0" encoding="UTF-8" standalone="no"?>
<!DOCTYPE svg PUBLIC "-//W3C//DTD SVG 1.1//EN"
 "http://www.w3.org/Graphics/SVG/1.1/DTD/svg11.dtd">
<!-- Generated by graphviz version 2.38.0 (20140413.2041)
 -->
<!-- Title: %3 Pages: 1 -->
<svg width="81pt" height="212pt"
 viewBox="0.00 0.00 80.85 211.57" xmlns="http://www.w3.org/2000/svg" xmlns:xlink="http://www.w3.org/1999/xlink">
<g id="graph0" class="graph" transform="scale(1 1) rotate(0) translate(4 207.569)">
<title>%3</title>
<polygon fill="white" stroke="none" points="-4,4 -4,-207.569 76.8493,-207.569 76.8493,4 -4,4"/>
<!-- A -->
<g id="node1" class="node"><title>A</title>
<polygon fill="lightgray" stroke="black" points="25.9298,-203.569 2.91945,-203.569 2.91945,-186.569 25.9298,-186.569 25.9298,-203.569"/>
<text text-anchor="middle" x="14.4246" y="-192.369" font-family="Times,serif" font-size="9.00">A</text>
</g>
<!-- A XOR B -->
<g id="node3" class="node"><title>A XOR B</title>
<ellipse fill="lightblue" stroke="black" cx="36.4246" cy="-36.4246" rx="36.3494" ry="36.3494"/>
<text text-anchor="middle" x="36.4246" y="-33.7246" font-family="Times,serif" font-size="9.00">A XOR B</text>
</g>
<!-- A&#45;&gt;A XOR B -->
<g id="edge4" class="edge"><title>A&#45;&gt;A XOR B</title>
<path fill="none" stroke="red" stroke-width="0.332179" d="M12.2422,-186.467C8.26078,-171.478 0.730522,-137.11 6.42463,-108.849 8.45685,-98.7631 11.9535,-88.3269 15.8578,-78.6505"/>
<polygon fill="red" stroke="red" stroke-width="0.332179" points="19.1554,-79.84 19.8588,-69.2685 12.7165,-77.094 19.1554,-79.84"/>
</g>
<!-- 182 -->
<g id="node4" class="node"><title>182</title>
<ellipse fill="white" stroke="black" cx="36.4246" cy="-129.709" rx="20.7202" ry="20.7202"/>
<text text-anchor="middle" x="36.4246" y="-127.009" font-family="Times,serif" font-size="9.00">182</text>
</g>
<!-- A&#45;&gt;182 -->
<g id="edge1" class="edge"><title>A&#45;&gt;182</title>
<path fill="none" stroke="green" stroke-width="0.506855" d="M17.1223,-186.299C19.4801,-179.509 23.0548,-169.214 26.4896,-159.322"/>
<polygon fill="green" stroke="green" stroke-width="0.506855" points="29.8538,-160.303 29.8276,-149.708 23.2411,-158.007 29.8538,-160.303"/>
</g>
<!-- B -->
<g id="node2" class="node"><title>B</title>
<polygon fill="lightgray" stroke="black" points="69.4276,-203.569 47.4217,-203.569 47.4217,-186.569 69.4276,-186.569 69.4276,-203.569"/>
<text text-anchor="middle" x="58.4246" y="-192.369" font-family="Times,serif" font-size="9.00">B</text>
</g>
<!-- B&#45;&gt;A XOR B -->
<g id="edge5" class="edge"><title>B&#45;&gt;A XOR B</title>
<path fill="none" stroke="green" stroke-width="0.359519" d="M60.607,-186.467C64.5885,-171.478 72.1187,-137.11 66.4246,-108.849 64.3924,-98.7631 60.8958,-88.3269 56.9915,-78.6505"/>
<polygon fill="green" stroke="green" stroke-width="0.359519" points="60.1328,-77.094 52.9904,-69.2685 53.6938,-79.84 60.1328,-77.094"/>
</g>
<!-- B&#45;&gt;182 -->
<g id="edge3" class="edge"><title>B&#45;&gt;182</title>
<path fill="none" stroke="red" stroke-width="0.528735" d="M55.727,-186.299C53.3691,-179.509 49.7945,-169.214 46.3596,-159.322"/>
<polygon fill="red" stroke="red" stroke-width="0.528735" points="49.6082,-158.007 43.0216,-149.708 42.9955,-160.303 49.6082,-158.007"/>
</g>
<!-- 182&#45;&gt;A XOR B -->
<g id="edge2" class="edge"><title>182&#45;&gt;A XOR B</title>
<path fill="none" stroke="green" stroke-width="0.946984" d="M36.4246,-108.45C36.4246,-100.975 36.4246,-92.168 36.4246,-83.3471"/>
<polygon fill="green" stroke="green" stroke-width="0.946984" points="39.9247,-83.0647 36.4246,-73.0647 32.9247,-83.0648 39.9247,-83.0647"/>
</g>
</g>
</svg>
